<svg xmlns="http://www.w3.org/2000/svg" xmlns:xlink="http://www.w3.org/1999/xlink" width="64" zoomAndPan="magnify" viewBox="0 0 48 48" height="64" preserveAspectRatio="xMidYMid meet" version="1.2"><defs><clipPath id="ea0e32fc45"><path d="M 0.488281 0 L 47.507812 0 L 47.507812 47.019531 L 0.488281 47.019531 Z M 0.488281 0 "/></clipPath></defs><g id="75dfc861fd"><g clip-rule="nonzero" clip-path="url(#ea0e32fc45)"><path style=" stroke:none;fill-rule:nonzero;fill:#ffffff;fill-opacity:1;" d="M 0.488281 0 L 47.511719 0 L 47.511719 47.019531 L 0.488281 47.019531 Z M 0.488281 0 "/><path style=" stroke:none;fill-rule:nonzero;fill:#ffffff;fill-opacity:1;" d="M 0.488281 0 L 47.511719 0 L 47.511719 47.019531 L 0.488281 47.019531 Z M 0.488281 0 "/><path style=" stroke:none;fill-rule:nonzero;fill:#00bf63;fill-opacity:1;" d="M 43.617188 19.625 C 43.425781 19.625 43.25 19.65625 43.070312 19.679688 L 40.207031 12.753906 C 41.152344 12.039062 41.773438 10.921875 41.773438 9.648438 C 41.773438 7.5 40.027344 5.753906 37.878906 5.753906 C 36.609375 5.753906 35.492188 6.375 34.777344 7.320312 L 27.855469 4.445312 C 27.878906 4.261719 27.910156 4.082031 27.910156 3.894531 C 27.910156 1.746094 26.164062 0 24.015625 0 C 21.867188 0 20.121094 1.746094 20.121094 3.894531 C 20.121094 4.082031 20.148438 4.261719 20.175781 4.445312 L 13.246094 7.308594 C 12.535156 6.363281 11.417969 5.738281 10.140625 5.738281 C 7.992188 5.738281 6.246094 7.488281 6.246094 9.632812 C 6.246094 10.90625 6.867188 12.023438 7.8125 12.738281 L 4.9375 19.660156 C 4.753906 19.636719 4.578125 19.605469 4.382812 19.605469 C 2.238281 19.605469 0.488281 21.351562 0.488281 23.5 C 0.488281 25.648438 2.238281 27.394531 4.382812 27.394531 C 4.574219 27.394531 4.75 27.363281 4.933594 27.339844 L 7.796875 34.269531 C 6.855469 34.980469 6.230469 36.097656 6.230469 37.371094 C 6.230469 39.519531 7.976562 41.265625 10.125 41.265625 C 11.394531 41.265625 12.515625 40.648438 13.226562 39.703125 L 20.148438 42.578125 C 20.125 42.761719 20.09375 42.9375 20.09375 43.125 C 20.09375 45.273438 21.84375 47.019531 23.988281 47.019531 C 26.136719 47.019531 27.882812 45.273438 27.882812 43.125 C 27.882812 42.9375 27.855469 42.761719 27.832031 42.578125 L 34.757812 39.710938 C 35.46875 40.65625 36.589844 41.28125 37.859375 41.28125 C 40.007812 41.28125 41.753906 39.535156 41.753906 37.386719 C 41.753906 36.113281 41.132812 34.996094 40.1875 34.28125 L 43.0625 27.359375 C 43.246094 27.386719 43.421875 27.414062 43.617188 27.414062 C 45.761719 27.414062 47.511719 25.667969 47.511719 23.519531 C 47.511719 21.371094 45.761719 19.625 43.617188 19.625 Z M 41.289062 20.417969 C 40.59375 20.941406 40.078125 21.6875 39.855469 22.558594 L 36.382812 22.558594 C 36.171875 19.859375 35.105469 17.394531 33.441406 15.449219 L 35.90625 12.984375 C 36.488281 13.332031 37.15625 13.542969 37.886719 13.542969 C 38.074219 13.542969 38.25 13.515625 38.433594 13.488281 Z M 24.003906 34.011719 C 18.214844 34.011719 13.5 29.300781 13.5 23.511719 C 13.5 17.71875 18.214844 13.003906 24.003906 13.003906 C 29.792969 13.003906 34.503906 17.714844 34.503906 23.503906 C 34.503906 29.296875 29.792969 34.011719 24.003906 34.011719 Z M 37.878906 7.679688 C 38.96875 7.679688 39.851562 8.566406 39.851562 9.648438 C 39.851562 10.734375 38.964844 11.617188 37.878906 11.617188 C 36.792969 11.617188 35.910156 10.734375 35.910156 9.648438 C 35.910156 8.566406 36.792969 7.679688 37.878906 7.679688 Z M 34.039062 9.101562 C 34.015625 9.285156 33.984375 9.460938 33.984375 9.648438 C 33.984375 10.371094 34.199219 11.046875 34.546875 11.625 L 32.082031 14.082031 C 30.136719 12.414062 27.675781 11.34375 24.976562 11.128906 L 24.976562 7.65625 C 25.847656 7.433594 26.59375 6.917969 27.117188 6.226562 Z M 24.015625 1.929688 C 25.101562 1.929688 25.984375 2.816406 25.984375 3.898438 C 25.984375 4.984375 25.097656 5.867188 24.015625 5.867188 C 22.925781 5.867188 22.046875 4.984375 22.046875 3.898438 C 22.046875 2.816406 22.929688 1.929688 24.015625 1.929688 Z M 20.914062 6.226562 C 21.4375 6.921875 22.183594 7.4375 23.054688 7.660156 L 23.054688 11.132812 C 20.351562 11.34375 17.886719 12.410156 15.945312 14.074219 L 13.484375 11.609375 C 13.832031 11.023438 14.042969 10.355469 14.042969 9.628906 C 14.042969 9.441406 14.015625 9.261719 13.988281 9.082031 Z M 10.144531 7.664062 C 11.234375 7.664062 12.117188 8.550781 12.117188 9.632812 C 12.117188 10.71875 11.234375 11.605469 10.144531 11.605469 C 9.054688 11.605469 8.175781 10.71875 8.175781 9.632812 C 8.175781 8.550781 9.0625 7.664062 10.144531 7.664062 Z M 9.59375 13.476562 C 9.777344 13.5 9.957031 13.527344 10.148438 13.527344 C 10.871094 13.527344 11.542969 13.316406 12.125 12.96875 L 14.582031 15.429688 C 12.914062 17.375 11.839844 19.832031 11.628906 22.535156 L 8.15625 22.535156 C 7.933594 21.664062 7.417969 20.917969 6.71875 20.394531 Z M 2.417969 23.5 C 2.417969 22.410156 3.304688 21.53125 4.390625 21.53125 C 5.476562 21.53125 6.363281 22.417969 6.363281 23.5 C 6.363281 24.589844 5.476562 25.46875 4.390625 25.46875 C 3.304688 25.46875 2.417969 24.585938 2.417969 23.5 Z M 6.714844 26.601562 C 7.414062 26.078125 7.925781 25.332031 8.148438 24.460938 L 11.625 24.460938 C 11.832031 27.164062 12.902344 29.625 14.5625 31.570312 L 12.105469 34.03125 C 11.519531 33.683594 10.851562 33.472656 10.125 33.472656 C 9.9375 33.472656 9.757812 33.5 9.574219 33.527344 Z M 10.128906 39.339844 C 9.039062 39.339844 8.160156 38.453125 8.160156 37.371094 C 8.160156 36.28125 9.046875 35.402344 10.128906 35.402344 C 11.214844 35.402344 12.097656 36.289062 12.097656 37.371094 C 12.097656 38.453125 11.21875 39.339844 10.128906 39.339844 Z M 13.96875 37.921875 C 13.996094 37.738281 14.023438 37.558594 14.023438 37.371094 C 14.023438 36.648438 13.8125 35.976562 13.464844 35.394531 L 15.925781 32.9375 C 17.867188 34.605469 20.328125 35.679688 23.03125 35.890625 L 23.03125 39.363281 C 22.160156 39.585938 21.410156 40.097656 20.886719 40.796875 Z M 23.996094 45.089844 C 22.90625 45.089844 22.027344 44.203125 22.027344 43.121094 C 22.027344 42.03125 22.910156 41.152344 23.996094 41.152344 C 25.082031 41.152344 25.964844 42.039062 25.964844 43.121094 C 25.964844 44.210938 25.078125 45.089844 23.996094 45.089844 Z M 27.097656 40.796875 C 26.574219 40.097656 25.824219 39.582031 24.953125 39.359375 L 24.953125 35.886719 C 27.65625 35.679688 30.121094 34.609375 32.066406 32.945312 L 34.53125 35.40625 C 34.183594 35.992188 33.972656 36.660156 33.972656 37.386719 C 33.972656 37.574219 34 37.75 34.027344 37.933594 Z M 37.867188 39.355469 C 36.777344 39.355469 35.894531 38.46875 35.894531 37.386719 C 35.894531 36.300781 36.78125 35.417969 37.867188 35.417969 C 38.949219 35.417969 39.835938 36.300781 39.835938 37.386719 C 39.835938 38.46875 38.949219 39.355469 37.867188 39.355469 Z M 38.414062 33.546875 C 38.230469 33.519531 38.054688 33.492188 37.859375 33.492188 C 37.136719 33.492188 36.464844 33.703125 35.886719 34.050781 L 33.421875 31.589844 C 35.089844 29.644531 36.164062 27.1875 36.375 24.484375 L 39.851562 24.484375 C 40.074219 25.355469 40.585938 26.101562 41.28125 26.628906 Z M 43.617188 25.496094 C 42.527344 25.496094 41.644531 24.609375 41.644531 23.523438 C 41.644531 22.441406 42.53125 21.554688 43.617188 21.554688 C 44.703125 21.554688 45.589844 22.441406 45.589844 23.523438 C 45.589844 24.609375 44.703125 25.496094 43.617188 25.496094 Z M 43.617188 25.496094 "/></g><path style=" stroke:none;fill-rule:nonzero;fill:#00bf63;fill-opacity:1;" d="M 26.933594 23.394531 C 26.101562 23.96875 25.09375 24.3125 24.011719 24.3125 C 22.925781 24.3125 21.921875 23.96875 21.085938 23.394531 C 19.597656 23.914062 18.515625 25.320312 18.515625 26.984375 L 18.515625 28.605469 C 18.515625 29.101562 18.792969 29.558594 19.230469 29.792969 C 19.238281 29.800781 19.246094 29.804688 19.253906 29.808594 C 19.988281 30.207031 20.8125 30.398438 21.644531 30.398438 L 26.355469 30.398438 C 27.1875 30.398438 28.011719 30.207031 28.75 29.808594 C 28.753906 29.804688 28.765625 29.804688 28.769531 29.800781 C 29.207031 29.5625 29.484375 29.113281 29.484375 28.613281 L 29.484375 26.988281 C 29.492188 25.320312 28.417969 23.914062 26.933594 23.394531 Z M 26.933594 23.394531 "/><path style=" stroke:none;fill-rule:nonzero;fill:#00bf63;fill-opacity:1;" d="M 24.011719 22.441406 C 25.839844 22.441406 27.320312 20.957031 27.320312 19.128906 C 27.320312 17.300781 25.835938 15.820312 24.011719 15.820312 C 22.179688 15.820312 20.699219 17.304688 20.699219 19.128906 C 20.695312 20.957031 22.179688 22.441406 24.011719 22.441406 Z M 24.011719 22.441406 "/></g></svg>