<svg xmlns="http://www.w3.org/2000/svg" xmlns:xlink="http://www.w3.org/1999/xlink" width="48" zoomAndPan="magnify" viewBox="0 0 36 36.000001" height="48" preserveAspectRatio="xMidYMid meet" version="1.2"><defs><clipPath id="0a683083cd"><path d="M 0.488281 0 L 35.511719 0 L 35.511719 35.027344 L 0.488281 35.027344 Z M 0.488281 0 "/></clipPath><clipPath id="329abab2ad"><path d="M 0.488281 4.96875 L 35.511719 4.96875 L 35.511719 29.78125 L 0.488281 29.78125 Z M 0.488281 4.96875 "/></clipPath></defs><g id="60ffc802e1"><g clip-rule="nonzero" clip-path="url(#0a683083cd)"><path style=" stroke:none;fill-rule:nonzero;fill:#ffffff;fill-opacity:1;" d="M 0.488281 0 L 35.511719 0 L 35.511719 35.027344 L 0.488281 35.027344 Z M 0.488281 0 "/><path style=" stroke:none;fill-rule:nonzero;fill:#ffffff;fill-opacity:1;" d="M 0.488281 0 L 35.511719 0 L 35.511719 35.027344 L 0.488281 35.027344 Z M 0.488281 0 "/></g><g clip-rule="nonzero" clip-path="url(#329abab2ad)"><path style=" stroke:none;fill-rule:nonzero;fill:#38b6ff;fill-opacity:1;" d="M 4.203125 28.917969 C 3.691406 28.917969 3.207031 28.769531 2.789062 28.5 L 12.773438 18.269531 L 15.992188 21.539062 C 16.523438 22.078125 17.230469 22.375 17.984375 22.375 C 18.742188 22.375 19.449219 22.082031 19.976562 21.542969 L 23.203125 18.265625 L 33.210938 28.5 C 32.792969 28.769531 32.308594 28.917969 31.796875 28.917969 Z M 2 27.695312 C 1.746094 27.289062 1.609375 26.816406 1.609375 26.324219 L 1.609375 8.691406 C 1.609375 8.195312 1.746094 7.71875 2.003906 7.3125 L 11.988281 17.464844 Z M 4.203125 6.097656 L 31.796875 6.097656 C 32.304688 6.097656 32.789062 6.242188 33.203125 6.511719 L 22.804688 17.070312 L 19.175781 20.753906 C 18.859375 21.074219 18.4375 21.253906 17.984375 21.253906 C 17.535156 21.253906 17.109375 21.074219 16.792969 20.753906 L 13.175781 17.070312 L 2.792969 6.511719 C 3.210938 6.242188 3.695312 6.097656 4.203125 6.097656 Z M 23.992188 17.464844 L 33.996094 7.308594 C 34.253906 7.71875 34.390625 8.195312 34.390625 8.691406 L 34.390625 26.324219 C 34.390625 26.816406 34.253906 27.289062 33.996094 27.699219 Z M 34.433594 6.070312 C 33.730469 5.363281 32.796875 4.972656 31.796875 4.972656 L 4.203125 4.972656 C 3.203125 4.972656 2.265625 5.363281 1.566406 6.070312 C 1.5625 6.070312 1.5625 6.074219 1.5625 6.074219 C 0.867188 6.769531 0.484375 7.699219 0.484375 8.691406 L 0.484375 26.324219 C 0.484375 27.3125 0.867188 28.238281 1.5625 28.9375 C 1.5625 28.941406 1.5625 28.941406 1.566406 28.945312 C 1.566406 28.945312 1.566406 28.945312 1.570312 28.945312 C 2.273438 29.652344 3.207031 30.042969 4.203125 30.042969 L 31.796875 30.042969 C 32.792969 30.042969 33.730469 29.652344 34.429688 28.945312 C 34.429688 28.945312 34.433594 28.945312 34.433594 28.945312 C 34.433594 28.945312 34.4375 28.941406 34.4375 28.941406 C 35.132812 28.242188 35.515625 27.3125 35.515625 26.324219 L 35.515625 8.691406 C 35.515625 7.699219 35.132812 6.769531 34.433594 6.070312 "/></g></g></svg>