<svg xmlns="http://www.w3.org/2000/svg" xmlns:xlink="http://www.w3.org/1999/xlink" width="48" zoomAndPan="magnify" viewBox="0 0 36 36.000001" height="48" preserveAspectRatio="xMidYMid meet" version="1.2"><defs><clipPath id="ac102a1a6f"><path d="M 0.488281 0 L 35.511719 0 L 35.511719 35.027344 L 0.488281 35.027344 Z M 0.488281 0 "/></clipPath></defs><g id="164ffd5136"><g clip-rule="nonzero" clip-path="url(#ac102a1a6f)"><path style=" stroke:none;fill-rule:nonzero;fill:#ffffff;fill-opacity:1;" d="M 0.488281 0 L 35.511719 0 L 35.511719 35.027344 L 0.488281 35.027344 Z M 0.488281 0 "/><path style=" stroke:none;fill-rule:nonzero;fill:#ffffff;fill-opacity:1;" d="M 0.488281 0 L 35.511719 0 L 35.511719 35.027344 L 0.488281 35.027344 Z M 0.488281 0 "/><path style=" stroke:none;fill-rule:nonzero;fill:#ff5757;fill-opacity:1;" d="M 18 0 C 8.324219 0 0.488281 7.839844 0.488281 17.511719 C 0.488281 27.1875 8.324219 35.027344 18 35.027344 C 27.675781 35.027344 35.511719 27.1875 35.511719 17.511719 C 35.511719 7.839844 27.675781 0 18 0 Z M 28.347656 10.085938 L 18.054688 17.21875 L 7.652344 10.085938 Z M 28.507812 24.9375 L 7.492188 24.9375 L 7.492188 10.753906 L 18.054688 17.925781 L 28.507812 10.773438 Z M 28.507812 24.9375 "/></g></g></svg>