<svg xmlns="http://www.w3.org/2000/svg" xmlns:xlink="http://www.w3.org/1999/xlink" width="80" zoomAndPan="magnify" viewBox="0 0 60 60" height="80" preserveAspectRatio="xMidYMid meet" version="1.2"><defs><clipPath id="8972849942"><path d="M 1 3.449219 L 60 3.449219 L 60 56.699219 L 1 56.699219 Z M 1 3.449219 "/></clipPath></defs><g id="e392b13e1b"><rect x="0" width="60" y="0" height="60" style="fill:#ffffff;fill-opacity:1;stroke:none;"/><rect x="0" width="60" y="0" height="60" style="fill:#ffffff;fill-opacity:1;stroke:none;"/><g clip-rule="nonzero" clip-path="url(#8972849942)"><path style=" stroke:none;fill-rule:nonzero;fill:#5170ff;fill-opacity:1;" d="M 20.453125 13.644531 C 19.792969 13.644531 19.136719 13.707031 18.488281 13.835938 C 17.839844 13.964844 17.207031 14.15625 16.597656 14.410156 C 15.984375 14.664062 15.40625 14.976562 14.855469 15.34375 C 14.304688 15.710938 13.796875 16.128906 13.328125 16.597656 C 12.859375 17.0625 12.441406 17.574219 12.074219 18.121094 C 11.707031 18.671875 11.394531 19.253906 11.144531 19.867188 C 10.890625 20.476562 10.699219 21.105469 10.570312 21.753906 C 10.441406 22.40625 10.375 23.058594 10.375 23.722656 C 10.375 24.382812 10.441406 25.039062 10.570312 25.6875 C 10.699219 26.335938 10.890625 26.96875 11.144531 27.578125 C 11.394531 28.191406 11.707031 28.769531 12.074219 29.320312 C 12.441406 29.871094 12.859375 30.378906 13.328125 30.847656 C 13.796875 31.316406 14.304688 31.734375 14.855469 32.101562 C 15.40625 32.46875 15.984375 32.78125 16.597656 33.03125 C 17.207031 33.285156 17.839844 33.476562 18.488281 33.605469 C 19.136719 33.734375 19.792969 33.800781 20.453125 33.800781 C 21.117188 33.800781 21.769531 33.734375 22.421875 33.605469 C 23.070312 33.476562 23.699219 33.285156 24.3125 33.03125 C 24.921875 32.78125 25.503906 32.46875 26.054688 32.101562 C 26.601562 31.734375 27.113281 31.316406 27.582031 30.847656 C 28.046875 30.378906 28.464844 29.871094 28.832031 29.320312 C 29.199219 28.769531 29.511719 28.191406 29.765625 27.578125 C 30.019531 26.96875 30.210938 26.335938 30.339844 25.6875 C 30.46875 25.039062 30.53125 24.382812 30.53125 23.722656 C 30.53125 23.058594 30.464844 22.40625 30.335938 21.757812 C 30.207031 21.109375 30.015625 20.476562 29.761719 19.867188 C 29.507812 19.253906 29.199219 18.675781 28.832031 18.125 C 28.460938 17.574219 28.046875 17.066406 27.578125 16.597656 C 27.109375 16.128906 26.601562 15.714844 26.050781 15.34375 C 25.5 14.976562 24.921875 14.667969 24.308594 14.414062 C 23.699219 14.160156 23.066406 13.96875 22.417969 13.839844 C 21.769531 13.710938 21.117188 13.644531 20.453125 13.644531 Z M 20.453125 31.867188 C 19.917969 31.867188 19.390625 31.8125 18.867188 31.710938 C 18.339844 31.605469 17.832031 31.449219 17.335938 31.246094 C 16.84375 31.039062 16.375 30.789062 15.929688 30.492188 C 15.484375 30.195312 15.074219 29.859375 14.695312 29.480469 C 14.316406 29.101562 13.980469 28.691406 13.683594 28.246094 C 13.386719 27.800781 13.136719 27.332031 12.929688 26.839844 C 12.726562 26.34375 12.570312 25.835938 12.46875 25.3125 C 12.363281 24.785156 12.308594 24.257812 12.308594 23.722656 C 12.308594 23.1875 12.363281 22.65625 12.46875 22.132812 C 12.570312 21.609375 12.726562 21.097656 12.929688 20.605469 C 13.136719 20.113281 13.386719 19.640625 13.683594 19.199219 C 13.980469 18.753906 14.316406 18.339844 14.695312 17.964844 C 15.074219 17.585938 15.484375 17.246094 15.929688 16.949219 C 16.375 16.652344 16.84375 16.402344 17.335938 16.199219 C 17.832031 15.992188 18.339844 15.839844 18.867188 15.734375 C 19.390625 15.628906 19.917969 15.578125 20.453125 15.578125 C 20.988281 15.578125 21.519531 15.628906 22.042969 15.734375 C 22.566406 15.839844 23.078125 15.992188 23.570312 16.199219 C 24.0625 16.402344 24.535156 16.652344 24.976562 16.949219 C 25.421875 17.246094 25.835938 17.585938 26.210938 17.964844 C 26.589844 18.339844 26.929688 18.753906 27.226562 19.199219 C 27.523438 19.640625 27.773438 20.113281 27.976562 20.605469 C 28.183594 21.097656 28.335938 21.609375 28.441406 22.132812 C 28.546875 22.65625 28.597656 23.1875 28.597656 23.722656 C 28.597656 24.257812 28.542969 24.785156 28.441406 25.308594 C 28.335938 25.835938 28.179688 26.34375 27.976562 26.835938 C 27.769531 27.332031 27.519531 27.800781 27.222656 28.242188 C 26.925781 28.6875 26.585938 29.097656 26.210938 29.476562 C 25.832031 29.855469 25.421875 30.191406 24.976562 30.488281 C 24.53125 30.789062 24.0625 31.039062 23.570312 31.242188 C 23.074219 31.449219 22.566406 31.601562 22.042969 31.707031 C 21.519531 31.8125 20.988281 31.863281 20.453125 31.867188 Z M 56.78125 24.515625 C 55.390625 23.734375 54.101562 22.808594 52.914062 21.75 L 52.640625 21.496094 L 52.246094 21.128906 C 52.773438 20.257812 53.175781 19.335938 53.457031 18.359375 C 53.738281 17.378906 53.886719 16.382812 53.902344 15.367188 C 53.914062 14.347656 53.796875 13.347656 53.546875 12.359375 C 53.296875 11.375 52.921875 10.4375 52.421875 9.554688 C 51.921875 8.667969 51.3125 7.863281 50.597656 7.136719 C 49.882812 6.414062 49.089844 5.792969 48.210938 5.28125 C 47.332031 4.769531 46.398438 4.382812 45.417969 4.117188 C 44.433594 3.851562 43.4375 3.71875 42.417969 3.722656 C 40.894531 3.714844 39.433594 4.003906 38.027344 4.585938 C 36.617188 5.167969 35.378906 6 34.304688 7.078125 C 33.550781 7.824219 32.902344 8.65625 32.371094 9.570312 C 31.5 8.835938 30.574219 8.1875 29.585938 7.621094 C 28.597656 7.058594 27.566406 6.589844 26.492188 6.214844 C 25.417969 5.839844 24.320312 5.570312 23.195312 5.398438 C 22.070312 5.226562 20.9375 5.160156 19.800781 5.199219 C 18.664062 5.234375 17.539062 5.378906 16.429688 5.621094 C 15.320312 5.867188 14.238281 6.210938 13.191406 6.65625 C 12.144531 7.101562 11.148438 7.636719 10.199219 8.265625 C 9.25 8.894531 8.367188 9.601562 7.550781 10.394531 C 6.734375 11.1875 5.996094 12.046875 5.335938 12.972656 C 4.679688 13.898438 4.109375 14.878906 3.632812 15.914062 C 3.15625 16.945312 2.773438 18.011719 2.496094 19.113281 C 2.214844 20.214844 2.035156 21.335938 1.960938 22.46875 C 1.886719 23.605469 1.917969 24.738281 2.050781 25.867188 C 2.1875 26.996094 2.421875 28.105469 2.761719 29.191406 C 3.101562 30.277344 3.535156 31.324219 4.070312 32.328125 C 4.601562 33.332031 5.21875 34.28125 5.925781 35.171875 L 6.003906 35.289062 L 14.507812 45.929688 C 10.210938 46.835938 7.609375 48.695312 7.609375 50.949219 C 7.609375 54.585938 14.109375 56.546875 20.183594 56.546875 C 26.257812 56.546875 32.757812 54.613281 32.757812 50.949219 C 32.757812 48.78125 30.300781 46.953125 26.238281 46.015625 L 34.816406 35.300781 C 34.855469 35.246094 34.890625 35.191406 34.921875 35.132812 C 37.015625 32.484375 38.277344 29.480469 38.703125 26.128906 C 39.871094 26.519531 41.070312 26.714844 42.300781 26.71875 C 44.136719 26.714844 45.871094 26.300781 47.503906 25.472656 C 47.699219 25.695312 47.894531 25.925781 48.097656 26.148438 L 48.269531 26.34375 C 49.324219 27.539062 50.242188 28.828125 51.027344 30.210938 C 51.386719 30.796875 51.804688 31.335938 52.285156 31.828125 C 52.695312 32.296875 53.179688 32.671875 53.742188 32.949219 C 54.304688 33.222656 54.898438 33.378906 55.523438 33.414062 C 56.710938 33.363281 57.699219 32.894531 58.492188 32.011719 C 59.367188 31.265625 59.867188 30.320312 59.980469 29.175781 C 59.972656 28.523438 59.828125 27.898438 59.550781 27.308594 C 59.273438 26.714844 58.882812 26.207031 58.386719 25.78125 C 57.90625 25.289062 57.371094 24.867188 56.78125 24.515625 Z M 30.910156 50.9375 C 30.910156 52.464844 26.847656 54.605469 20.269531 54.605469 C 13.695312 54.605469 9.632812 52.464844 9.632812 50.9375 C 9.632812 49.816406 11.847656 48.308594 15.957031 47.628906 L 16.460938 48.25 C 16.957031 48.867188 17.5625 49.34375 18.28125 49.683594 C 18.996094 50.023438 19.75 50.1875 20.542969 50.183594 C 21.328125 50.1875 22.078125 50.015625 22.792969 49.679688 C 23.503906 49.339844 24.109375 48.863281 24.601562 48.25 L 25.039062 47.707031 C 28.820312 48.421875 30.910156 49.875 30.910156 50.9375 Z M 33.375 34.070312 C 33.339844 34.121094 33.308594 34.171875 33.277344 34.226562 L 23.015625 47.039062 C 22.707031 47.429688 22.324219 47.734375 21.875 47.949219 C 21.425781 48.167969 20.953125 48.277344 20.453125 48.277344 C 19.953125 48.277344 19.476562 48.171875 19.027344 47.953125 C 18.574219 47.734375 18.195312 47.433594 17.882812 47.039062 L 17.117188 46.074219 L 7.601562 34.1875 C 7.578125 34.148438 7.550781 34.113281 7.523438 34.082031 C 6.875 33.277344 6.304688 32.417969 5.820312 31.507812 C 5.332031 30.597656 4.933594 29.648438 4.621094 28.664062 C 4.3125 27.675781 4.097656 26.671875 3.976562 25.644531 C 3.851562 24.617188 3.828125 23.589844 3.898438 22.558594 C 3.96875 21.527344 4.136719 20.511719 4.398438 19.511719 C 4.660156 18.515625 5.011719 17.546875 5.453125 16.613281 C 5.894531 15.679688 6.417969 14.792969 7.027344 13.960938 C 7.636719 13.125 8.316406 12.351562 9.070312 11.644531 C 9.820312 10.9375 10.632812 10.304688 11.503906 9.75 C 12.375 9.191406 13.289062 8.722656 14.25 8.335938 C 15.207031 7.953125 16.195312 7.660156 17.207031 7.460938 C 18.222656 7.261719 19.246094 7.15625 20.277344 7.148438 C 21.3125 7.140625 22.335938 7.230469 23.351562 7.414062 C 24.371094 7.597656 25.359375 7.875 26.324219 8.242188 C 27.289062 8.613281 28.214844 9.066406 29.09375 9.609375 C 29.972656 10.152344 30.792969 10.773438 31.558594 11.46875 C 31.195312 12.488281 30.984375 13.535156 30.921875 14.617188 C 30.859375 15.695312 30.945312 16.761719 31.1875 17.816406 C 31.429688 18.871094 31.8125 19.867188 32.335938 20.8125 C 32.859375 21.757812 33.507812 22.613281 34.273438 23.375 C 35.066406 24.144531 35.949219 24.789062 36.925781 25.308594 C 36.777344 26.910156 36.402344 28.457031 35.796875 29.949219 C 35.191406 31.441406 34.386719 32.816406 33.375 34.070312 Z M 42.390625 24.777344 C 42 24.777344 41.609375 24.75 41.222656 24.703125 C 40.832031 24.65625 40.449219 24.582031 40.070312 24.488281 C 39.691406 24.390625 39.320312 24.273438 38.957031 24.132812 C 38.589844 23.992188 38.234375 23.828125 37.890625 23.644531 C 37.546875 23.460938 37.214844 23.253906 36.894531 23.03125 C 36.574219 22.804688 36.269531 22.5625 35.980469 22.296875 C 35.691406 22.035156 35.421875 21.757812 35.164062 21.460938 C 34.910156 21.164062 34.671875 20.855469 34.457031 20.527344 C 34.238281 20.203125 34.042969 19.867188 33.867188 19.519531 C 33.691406 19.167969 33.535156 18.808594 33.40625 18.441406 C 33.273438 18.074219 33.164062 17.699219 33.078125 17.316406 C 32.992188 16.9375 32.929688 16.550781 32.890625 16.164062 C 32.855469 15.773438 32.839844 15.382812 32.847656 14.992188 C 32.859375 14.601562 32.890625 14.214844 32.949219 13.828125 C 33.003906 13.441406 33.085938 13.058594 33.1875 12.679688 C 33.292969 12.304688 33.417969 11.933594 33.570312 11.574219 L 33.570312 11.507812 C 33.9375 10.644531 34.421875 9.859375 35.023438 9.140625 C 35.625 8.421875 36.316406 7.804688 37.097656 7.289062 C 37.878906 6.773438 38.714844 6.378906 39.613281 6.109375 C 40.507812 5.839844 41.425781 5.703125 42.359375 5.703125 C 42.988281 5.703125 43.609375 5.765625 44.222656 5.886719 C 44.835938 6.007812 45.433594 6.191406 46.011719 6.429688 C 46.59375 6.671875 47.144531 6.964844 47.664062 7.3125 C 48.183594 7.660156 48.667969 8.054688 49.109375 8.5 C 49.554688 8.941406 49.949219 9.425781 50.296875 9.945312 C 50.644531 10.46875 50.941406 11.015625 51.179688 11.597656 C 51.417969 12.175781 51.601562 12.773438 51.722656 13.386719 C 51.84375 14 51.90625 14.621094 51.90625 15.25 C 51.90625 15.875 51.84375 16.496094 51.722656 17.113281 C 51.601562 17.726562 51.417969 18.324219 51.179688 18.902344 C 50.941406 19.480469 50.644531 20.03125 50.296875 20.554688 C 49.949219 21.074219 49.554688 21.554688 49.109375 22 C 48.667969 22.441406 48.183594 22.839844 47.664062 23.1875 C 47.144531 23.535156 46.59375 23.828125 46.011719 24.070312 C 45.433594 24.308594 44.835938 24.488281 44.222656 24.613281 C 43.609375 24.734375 42.988281 24.796875 42.359375 24.796875 Z M 57.214844 30.578125 C 56.035156 31.75 55.03125 31.699219 53.742188 30.40625 C 53.371094 30.03125 53.046875 29.613281 52.777344 29.15625 C 51.921875 27.671875 50.925781 26.289062 49.789062 25.007812 L 49.613281 24.816406 C 49.488281 24.679688 49.371094 24.535156 49.246094 24.390625 C 49.691406 24.082031 50.113281 23.746094 50.503906 23.375 C 50.714844 23.171875 50.902344 22.949219 51.09375 22.726562 C 51.183594 22.8125 51.277344 22.890625 51.375 22.96875 L 51.644531 23.210938 C 52.925781 24.363281 54.3125 25.367188 55.8125 26.21875 C 56.261719 26.484375 56.664062 26.808594 57.023438 27.183594 C 57.644531 27.679688 57.988281 28.324219 58.046875 29.117188 C 57.957031 29.71875 57.679688 30.214844 57.214844 30.609375 Z M 47.46875 10.152344 C 46.964844 9.652344 46.398438 9.234375 45.773438 8.902344 C 45.148438 8.570312 44.488281 8.335938 43.792969 8.195312 C 43.09375 8.058594 42.394531 8.027344 41.6875 8.097656 C 40.984375 8.167969 40.304688 8.335938 39.648438 8.609375 C 38.992188 8.878906 38.390625 9.242188 37.84375 9.691406 C 37.292969 10.140625 36.824219 10.660156 36.429688 11.25 C 36.035156 11.835938 35.734375 12.472656 35.527344 13.148438 C 35.320312 13.828125 35.214844 14.519531 35.214844 15.230469 C 35.214844 15.699219 35.261719 16.167969 35.355469 16.628906 C 35.445312 17.089844 35.582031 17.539062 35.765625 17.972656 C 35.945312 18.410156 36.167969 18.820312 36.429688 19.210938 C 36.691406 19.605469 36.988281 19.964844 37.320312 20.300781 C 37.652344 20.632812 38.015625 20.929688 38.40625 21.191406 C 38.796875 21.453125 39.210938 21.675781 39.644531 21.855469 C 40.082031 22.035156 40.527344 22.171875 40.992188 22.265625 C 41.453125 22.359375 41.917969 22.40625 42.390625 22.40625 C 43.097656 22.40625 43.792969 22.304688 44.472656 22.097656 C 45.152344 21.894531 45.789062 21.59375 46.378906 21.199219 C 46.96875 20.804688 47.492188 20.332031 47.941406 19.785156 C 48.390625 19.234375 48.753906 18.632812 49.027344 17.976562 C 49.296875 17.320312 49.46875 16.640625 49.539062 15.933594 C 49.605469 15.226562 49.574219 14.523438 49.433594 13.828125 C 49.296875 13.132812 49.058594 12.46875 48.722656 11.84375 C 48.386719 11.21875 47.96875 10.65625 47.46875 10.152344 Z M 46.09375 18.933594 C 45.605469 19.425781 45.039062 19.808594 44.394531 20.074219 C 43.753906 20.339844 43.085938 20.472656 42.390625 20.472656 C 41.988281 20.472656 41.589844 20.429688 41.195312 20.335938 C 40.804688 20.246094 40.425781 20.113281 40.066406 19.933594 C 39.703125 19.757812 39.367188 19.539062 39.054688 19.285156 C 38.742188 19.03125 38.464844 18.742188 38.21875 18.421875 C 37.972656 18.105469 37.765625 17.761719 37.601562 17.394531 C 37.433594 17.027344 37.308594 16.648438 37.230469 16.25 C 37.152344 15.855469 37.117188 15.457031 37.132812 15.054688 C 37.144531 14.652344 37.203125 14.257812 37.304688 13.867188 C 37.410156 13.476562 37.558594 13.105469 37.746094 12.75 C 37.9375 12.394531 38.164062 12.066406 38.429688 11.761719 C 38.695312 11.457031 38.992188 11.1875 39.316406 10.953125 C 39.644531 10.71875 39.996094 10.523438 40.367188 10.371094 C 40.738281 10.214844 41.125 10.105469 41.519531 10.039062 C 41.917969 9.972656 42.320312 9.953125 42.71875 9.980469 C 43.121094 10.003906 43.515625 10.078125 43.902344 10.195312 C 44.289062 10.3125 44.65625 10.46875 45.003906 10.671875 C 45.351562 10.871094 45.675781 11.109375 45.96875 11.386719 C 46.261719 11.660156 46.523438 11.964844 46.746094 12.300781 C 46.96875 12.636719 47.152344 12.992188 47.296875 13.371094 C 47.4375 13.746094 47.535156 14.132812 47.585938 14.535156 C 47.640625 14.933594 47.648438 15.332031 47.605469 15.734375 C 47.566406 16.136719 47.484375 16.527344 47.355469 16.910156 C 47.222656 17.289062 47.054688 17.652344 46.839844 17.992188 C 46.628906 18.335938 46.378906 18.648438 46.09375 18.933594 Z M 46.09375 18.933594 "/></g></g></svg>