<svg xmlns="http://www.w3.org/2000/svg" xmlns:xlink="http://www.w3.org/1999/xlink" width="64" zoomAndPan="magnify" viewBox="0 0 48 48" height="64" preserveAspectRatio="xMidYMid meet" version="1.2"><defs><clipPath id="8922d5d1a7"><path d="M 0.488281 0 L 47.507812 0 L 47.507812 47.019531 L 0.488281 47.019531 Z M 0.488281 0 "/></clipPath><clipPath id="aa0407a61e"><path d="M 5.867188 0 L 41.867188 0 L 41.867188 47 L 5.867188 47 Z M 5.867188 0 "/></clipPath></defs><g id="61c04a50f5"><g clip-rule="nonzero" clip-path="url(#8922d5d1a7)"><path style=" stroke:none;fill-rule:nonzero;fill:#ffffff;fill-opacity:1;" d="M 0.488281 0 L 47.511719 0 L 47.511719 47.019531 L 0.488281 47.019531 Z M 0.488281 0 "/><path style=" stroke:none;fill-rule:nonzero;fill:#ffffff;fill-opacity:1;" d="M 0.488281 0 L 47.511719 0 L 47.511719 47.019531 L 0.488281 47.019531 Z M 0.488281 0 "/></g><g clip-rule="nonzero" clip-path="url(#aa0407a61e)"><path style=" stroke:none;fill-rule:evenodd;fill:#00bf63;fill-opacity:1;" d="M 27.910156 25.863281 C 27.03125 26.273438 26.371094 27.066406 26.136719 28.066406 C 26.136719 28.070312 25.839844 29.328125 25.839844 29.328125 C 25.839844 29.328125 25.839844 29.328125 25.839844 29.332031 C 25.832031 29.367188 25.816406 29.398438 25.785156 29.421875 C 25.785156 29.421875 25.785156 29.425781 25.785156 29.425781 L 24.839844 30.3125 C 23.773438 31.3125 23.503906 32.839844 24.167969 34.144531 C 24.167969 34.144531 24.746094 35.292969 24.746094 35.292969 C 24.765625 35.328125 24.773438 35.363281 24.769531 35.402344 C 24.769531 35.40625 24.769531 35.40625 24.769531 35.40625 L 24.613281 36.695312 C 24.554688 37.210938 24.613281 37.714844 24.773438 38.175781 C 18.476562 38.175781 11.941406 38.175781 10.054688 38.171875 C 9.917969 38.171875 9.789062 38.113281 9.699219 38.011719 C 9.609375 37.90625 9.566406 37.769531 9.585938 37.632812 C 10.601562 30.652344 16.609375 25.292969 23.871094 25.292969 C 25.273438 25.292969 26.628906 25.492188 27.910156 25.863281 Z M 23.871094 24.339844 C 19.851562 24.339844 16.574219 21.058594 16.574219 17.039062 C 16.574219 13.019531 19.851562 9.738281 23.871094 9.738281 C 27.894531 9.738281 31.171875 13.019531 31.171875 17.039062 C 31.171875 21.058594 27.894531 24.339844 23.871094 24.339844 Z M 38.921875 40.992188 L 40.671875 44.753906 C 40.699219 44.808594 40.691406 44.867188 40.65625 44.910156 C 40.621094 44.960938 40.566406 44.980469 40.507812 44.96875 L 38.1875 44.566406 L 37.003906 46.601562 C 36.972656 46.652344 36.921875 46.679688 36.863281 46.679688 C 36.804688 46.675781 36.757812 46.644531 36.730469 46.589844 L 35.125 43.140625 C 36.417969 43.390625 37.707031 42.851562 38.445312 41.726562 Z M 31.863281 43.140625 L 30.257812 46.589844 C 30.234375 46.644531 30.183594 46.675781 30.125 46.679688 C 30.066406 46.679688 30.015625 46.652344 29.988281 46.601562 L 28.804688 44.566406 L 26.480469 44.96875 C 26.421875 44.980469 26.367188 44.960938 26.332031 44.910156 C 26.296875 44.867188 26.289062 44.808594 26.316406 44.753906 L 28.066406 40.992188 C 28.273438 41.308594 28.542969 41.726562 28.542969 41.726562 C 29.28125 42.851562 30.570312 43.390625 31.863281 43.140625 Z M 34.527344 25.902344 L 35.5625 26.679688 C 35.847656 26.890625 36.144531 27 36.496094 27.015625 L 37.789062 27.089844 C 38.5625 27.132812 39.191406 27.660156 39.367188 28.414062 L 39.664062 29.675781 C 39.746094 30.019531 39.902344 30.292969 40.164062 30.535156 L 41.105469 31.421875 C 41.671875 31.953125 41.8125 32.761719 41.464844 33.453125 L 40.878906 34.609375 C 40.722656 34.925781 40.664062 35.234375 40.707031 35.589844 L 40.863281 36.875 C 40.953125 37.644531 40.542969 38.355469 39.828125 38.660156 L 38.640625 39.167969 C 38.3125 39.308594 38.070312 39.511719 37.875 39.808594 L 37.167969 40.890625 C 36.746094 41.542969 35.972656 41.820312 35.230469 41.597656 L 33.992188 41.222656 C 33.652344 41.121094 33.335938 41.121094 32.996094 41.222656 L 31.757812 41.597656 C 31.015625 41.820312 30.246094 41.542969 29.820312 40.890625 L 29.113281 39.808594 C 28.917969 39.511719 28.675781 39.308594 28.347656 39.167969 L 27.160156 38.660156 C 26.449219 38.355469 26.035156 37.644531 26.128906 36.875 L 26.28125 35.589844 C 26.324219 35.234375 26.269531 34.925781 26.109375 34.609375 L 25.527344 33.453125 C 25.175781 32.761719 25.316406 31.953125 25.882812 31.421875 L 26.828125 30.535156 C 27.085938 30.292969 27.246094 30.019531 27.324219 29.675781 L 27.621094 28.414062 C 27.796875 27.660156 28.425781 27.132812 29.199219 27.089844 L 30.492188 27.015625 C 30.847656 27 31.144531 26.890625 31.425781 26.679688 L 32.464844 25.902344 C 33.085938 25.4375 33.90625 25.4375 34.527344 25.902344 Z M 33.496094 38.34375 C 36.097656 38.34375 38.222656 36.21875 38.222656 33.613281 C 38.222656 31.007812 36.097656 28.882812 33.496094 28.882812 C 30.890625 28.882812 28.765625 31.007812 28.765625 33.613281 C 28.765625 36.21875 30.890625 38.34375 33.496094 38.34375 Z M 23.519531 0.253906 C 23.570312 0.101562 23.710938 0 23.871094 0 C 24.03125 0 24.171875 0.101562 24.222656 0.253906 L 24.890625 2.320312 C 24.941406 2.46875 25.082031 2.574219 25.242188 2.574219 L 27.414062 2.574219 C 27.574219 2.574219 27.714844 2.675781 27.761719 2.828125 C 27.8125 2.980469 27.757812 3.144531 27.628906 3.242188 L 25.875 4.515625 C 25.746094 4.609375 25.691406 4.777344 25.738281 4.929688 L 26.410156 6.992188 C 26.460938 7.144531 26.40625 7.308594 26.277344 7.40625 C 26.148438 7.5 25.972656 7.5 25.84375 7.40625 L 24.085938 6.128906 C 23.957031 6.035156 23.78125 6.035156 23.652344 6.128906 L 21.898438 7.40625 C 21.769531 7.5 21.59375 7.5 21.464844 7.40625 C 21.335938 7.308594 21.28125 7.144531 21.332031 6.992188 L 22 4.929688 C 22.050781 4.777344 21.996094 4.609375 21.867188 4.515625 L 20.113281 3.242188 C 19.984375 3.144531 19.929688 2.980469 19.976562 2.828125 C 20.027344 2.675781 20.167969 2.574219 20.328125 2.574219 L 22.5 2.574219 C 22.660156 2.574219 22.800781 2.46875 22.847656 2.320312 Z M 11.082031 5.699219 C 11.007812 5.558594 11.035156 5.382812 11.148438 5.269531 C 11.261719 5.160156 11.433594 5.132812 11.578125 5.203125 L 13.511719 6.1875 C 13.652344 6.261719 13.824219 6.234375 13.9375 6.121094 L 15.472656 4.585938 C 15.585938 4.472656 15.757812 4.445312 15.902344 4.519531 C 16.042969 4.589844 16.121094 4.746094 16.097656 4.90625 L 15.757812 7.046875 C 15.734375 7.207031 15.8125 7.363281 15.957031 7.433594 L 17.890625 8.417969 C 18.03125 8.492188 18.109375 8.648438 18.085938 8.804688 C 18.0625 8.964844 17.9375 9.085938 17.78125 9.113281 L 15.636719 9.453125 C 15.476562 9.476562 15.355469 9.601562 15.328125 9.757812 L 14.988281 11.902344 C 14.964844 12.058594 14.839844 12.183594 14.683594 12.207031 C 14.527344 12.234375 14.371094 12.152344 14.296875 12.011719 L 13.3125 10.078125 C 13.238281 9.933594 13.082031 9.855469 12.925781 9.878906 L 10.78125 10.21875 C 10.625 10.246094 10.46875 10.164062 10.394531 10.023438 C 10.324219 9.882812 10.351562 9.707031 10.464844 9.59375 L 12 8.0625 C 12.113281 7.949219 12.140625 7.773438 12.066406 7.632812 Z M 6.136719 18.34375 C 5.984375 18.296875 5.878906 18.152344 5.878906 17.992188 C 5.878906 17.835938 5.984375 17.691406 6.136719 17.644531 L 8.199219 16.972656 C 8.351562 16.921875 8.453125 16.78125 8.453125 16.621094 L 8.453125 14.453125 C 8.453125 14.292969 8.558594 14.152344 8.707031 14.101562 C 8.859375 14.050781 9.027344 14.105469 9.121094 14.234375 L 10.394531 15.992188 C 10.492188 16.121094 10.65625 16.175781 10.808594 16.125 L 12.871094 15.453125 C 13.023438 15.40625 13.191406 15.457031 13.285156 15.589844 C 13.378906 15.71875 13.378906 15.890625 13.285156 16.019531 L 12.007812 17.777344 C 11.914062 17.90625 11.914062 18.082031 12.007812 18.210938 L 13.285156 19.964844 C 13.378906 20.09375 13.378906 20.269531 13.285156 20.398438 C 13.191406 20.527344 13.023438 20.582031 12.871094 20.535156 L 10.808594 19.863281 C 10.65625 19.8125 10.492188 19.867188 10.394531 19.996094 L 9.121094 21.753906 C 9.027344 21.882812 8.859375 21.9375 8.707031 21.886719 C 8.558594 21.835938 8.453125 21.695312 8.453125 21.535156 L 8.453125 19.367188 C 8.453125 19.207031 8.351562 19.066406 8.199219 19.015625 Z M 36.164062 5.199219 C 36.308594 5.128906 36.480469 5.15625 36.59375 5.269531 C 36.707031 5.382812 36.734375 5.554688 36.660156 5.695312 L 35.675781 7.628906 C 35.601562 7.773438 35.628906 7.945312 35.742188 8.058594 L 37.277344 9.59375 C 37.390625 9.707031 37.417969 9.878906 37.347656 10.019531 C 37.273438 10.164062 37.117188 10.242188 36.960938 10.21875 L 34.816406 9.878906 C 34.660156 9.851562 34.503906 9.933594 34.429688 10.074219 L 33.445312 12.007812 C 33.371094 12.152344 33.214844 12.230469 33.058594 12.207031 C 32.902344 12.179688 32.777344 12.054688 32.753906 11.898438 L 32.414062 9.753906 C 32.386719 9.597656 32.265625 9.472656 32.105469 9.449219 L 29.964844 9.109375 C 29.804688 9.085938 29.679688 8.960938 29.65625 8.804688 C 29.632812 8.644531 29.710938 8.488281 29.851562 8.417969 L 31.789062 7.429688 C 31.929688 7.359375 32.007812 7.203125 31.984375 7.046875 L 31.644531 4.902344 C 31.621094 4.742188 31.699219 4.589844 31.839844 4.515625 C 31.984375 4.441406 32.15625 4.46875 32.269531 4.582031 L 33.804688 6.117188 C 33.917969 6.230469 34.089844 6.257812 34.230469 6.1875 Z M 41.609375 17.640625 C 41.761719 17.6875 41.863281 17.832031 41.863281 17.988281 C 41.863281 18.148438 41.761719 18.292969 41.609375 18.339844 L 39.546875 19.011719 C 39.394531 19.0625 39.292969 19.203125 39.292969 19.363281 L 39.292969 21.53125 C 39.292969 21.691406 39.1875 21.832031 39.035156 21.882812 C 38.882812 21.933594 38.71875 21.878906 38.625 21.75 L 37.347656 19.992188 C 37.253906 19.863281 37.089844 19.808594 36.9375 19.859375 L 34.871094 20.53125 C 34.71875 20.578125 34.554688 20.523438 34.460938 20.394531 C 34.367188 20.265625 34.367188 20.09375 34.460938 19.960938 L 35.734375 18.207031 C 35.828125 18.078125 35.828125 17.902344 35.734375 17.773438 L 34.460938 16.015625 C 34.367188 15.886719 34.367188 15.714844 34.460938 15.585938 C 34.554688 15.457031 34.71875 15.402344 34.871094 15.449219 L 36.9375 16.121094 C 37.089844 16.171875 37.253906 16.117188 37.347656 15.988281 L 38.625 14.230469 C 38.71875 14.101562 38.882812 14.046875 39.035156 14.097656 C 39.1875 14.148438 39.292969 14.289062 39.292969 14.449219 L 39.292969 16.617188 C 39.292969 16.777344 39.394531 16.917969 39.546875 16.96875 Z M 41.609375 17.640625 "/></g></g></svg>