<svg xmlns="http://www.w3.org/2000/svg" xmlns:xlink="http://www.w3.org/1999/xlink" width="48" zoomAndPan="magnify" viewBox="0 0 36 36.000001" height="48" preserveAspectRatio="xMidYMid meet" version="1.2"><defs><clipPath id="11feac5258"><path d="M 0.488281 0 L 35.511719 0 L 35.511719 35.027344 L 0.488281 35.027344 Z M 0.488281 0 "/></clipPath><clipPath id="180027a44b"><path d="M 0.488281 0 L 35.511719 0 L 35.511719 35.027344 L 0.488281 35.027344 Z M 0.488281 0 "/></clipPath></defs><g id="299eb2d742"><g clip-rule="nonzero" clip-path="url(#11feac5258)"><path style=" stroke:none;fill-rule:nonzero;fill:#ffffff;fill-opacity:1;" d="M 0.488281 0 L 35.511719 0 L 35.511719 35.027344 L 0.488281 35.027344 Z M 0.488281 0 "/><path style=" stroke:none;fill-rule:nonzero;fill:#ffffff;fill-opacity:1;" d="M 0.488281 0 L 35.511719 0 L 35.511719 35.027344 L 0.488281 35.027344 Z M 0.488281 0 "/></g><path style=" stroke:none;fill-rule:nonzero;fill:#ff5757;fill-opacity:1;" d="M 18.003906 7.707031 C 15.679688 7.707031 13.796875 9.589844 13.796875 11.910156 C 13.796875 14.234375 15.679688 16.117188 18.003906 16.117188 C 20.324219 16.117188 22.207031 14.234375 22.207031 11.910156 C 22.207031 9.589844 20.324219 7.707031 18.003906 7.707031 "/><g clip-rule="nonzero" clip-path="url(#180027a44b)"><path style=" stroke:none;fill-rule:nonzero;fill:#ff5757;fill-opacity:1;" d="M 18.003906 28.242188 C 18.003906 28.242188 10.109375 17.503906 10.109375 13.144531 C 10.109375 8.785156 13.644531 5.25 18.003906 5.25 C 22.363281 5.25 25.894531 8.785156 25.894531 13.144531 C 25.894531 17.503906 18.003906 28.242188 18.003906 28.242188 Z M 18.003906 0 C 8.328125 0 0.488281 7.84375 0.488281 17.515625 C 0.488281 27.191406 8.328125 35.03125 18.003906 35.03125 C 27.675781 35.03125 35.519531 27.191406 35.519531 17.515625 C 35.519531 7.84375 27.675781 0 18.003906 0 "/></g></g></svg>