<svg xmlns="http://www.w3.org/2000/svg" xmlns:xlink="http://www.w3.org/1999/xlink" width="48" zoomAndPan="magnify" viewBox="0 0 36 36.000001" height="48" preserveAspectRatio="xMidYMid meet" version="1.2"><defs><clipPath id="d3ebf551bc"><path d="M 0.488281 0 L 35.511719 0 L 35.511719 35.027344 L 0.488281 35.027344 Z M 0.488281 0 "/></clipPath><clipPath id="d6a6671eb8"><path d="M 4.535156 0 L 31.535156 0 L 31.535156 35.027344 L 4.535156 35.027344 Z M 4.535156 0 "/></clipPath></defs><g id="d8f17f19e2"><g clip-rule="nonzero" clip-path="url(#d3ebf551bc)"><path style=" stroke:none;fill-rule:nonzero;fill:#ffffff;fill-opacity:1;" d="M 0.488281 0 L 35.511719 0 L 35.511719 35.027344 L 0.488281 35.027344 Z M 0.488281 0 "/><path style=" stroke:none;fill-rule:nonzero;fill:#ffffff;fill-opacity:1;" d="M 0.488281 0 L 35.511719 0 L 35.511719 35.027344 L 0.488281 35.027344 Z M 0.488281 0 "/></g><g clip-rule="nonzero" clip-path="url(#d6a6671eb8)"><path style=" stroke:none;fill-rule:nonzero;fill:#38b6ff;fill-opacity:1;" d="M 17.996094 0 C 17.132812 0 16.28125 0.0859375 15.433594 0.253906 C 14.589844 0.421875 13.769531 0.671875 12.972656 1.003906 C 12.175781 1.332031 11.417969 1.738281 10.703125 2.21875 C 9.984375 2.695312 9.320312 3.242188 8.710938 3.851562 C 8.101562 4.460938 7.558594 5.125 7.078125 5.839844 C 6.601562 6.558594 6.195312 7.3125 5.863281 8.109375 C 5.535156 8.90625 5.285156 9.726562 5.117188 10.574219 C 4.945312 11.417969 4.863281 12.273438 4.863281 13.136719 C 4.863281 23.019531 16.601562 33.78125 17.109375 34.230469 L 17.984375 35.027344 C 19.097656 33.964844 30.851562 24.015625 31.132812 13.136719 C 31.128906 12.273438 31.046875 11.417969 30.878906 10.574219 C 30.707031 9.726562 30.457031 8.90625 30.128906 8.109375 C 29.796875 7.3125 29.394531 6.558594 28.914062 5.839844 C 28.433594 5.125 27.890625 4.460938 27.28125 3.851562 C 26.671875 3.242188 26.007812 2.695312 25.289062 2.21875 C 24.574219 1.738281 23.816406 1.332031 23.019531 1.003906 C 22.226562 0.671875 21.402344 0.421875 20.558594 0.253906 C 19.710938 0.0859375 18.859375 0 17.996094 0 Z M 17.996094 31.417969 C 15.34375 28.765625 7.515625 20.394531 7.515625 13.136719 C 7.515625 12.445312 7.582031 11.765625 7.714844 11.089844 C 7.851562 10.414062 8.050781 9.761719 8.3125 9.125 C 8.578125 8.488281 8.898438 7.882812 9.28125 7.3125 C 9.664062 6.738281 10.097656 6.210938 10.585938 5.722656 C 11.070312 5.238281 11.601562 4.800781 12.171875 4.421875 C 12.746094 4.039062 13.351562 3.714844 13.984375 3.453125 C 14.621094 3.1875 15.277344 2.988281 15.953125 2.855469 C 16.625 2.71875 17.308594 2.652344 17.996094 2.652344 C 18.683594 2.652344 19.367188 2.71875 20.042969 2.855469 C 20.714844 2.988281 21.371094 3.1875 22.007812 3.453125 C 22.644531 3.714844 23.246094 4.039062 23.820312 4.421875 C 24.390625 4.800781 24.921875 5.238281 25.40625 5.722656 C 25.894531 6.210938 26.328125 6.738281 26.710938 7.3125 C 27.09375 7.882812 27.417969 8.488281 27.679688 9.125 C 27.945312 9.761719 28.140625 10.414062 28.277344 11.089844 C 28.410156 11.765625 28.476562 12.445312 28.476562 13.136719 C 28.476562 20.523438 20.648438 28.792969 17.996094 31.417969 Z M 17.996094 7.113281 C 9.796875 7.375 9.796875 19.265625 17.996094 19.53125 C 26.195312 19.265625 26.195312 7.375 17.996094 7.113281 Z M 17.996094 16.875 C 17.523438 16.875 17.070312 16.785156 16.636719 16.605469 C 16.199219 16.425781 15.816406 16.167969 15.480469 15.835938 C 15.148438 15.5 14.890625 15.117188 14.710938 14.679688 C 14.53125 14.246094 14.441406 13.792969 14.441406 13.320312 C 14.441406 12.847656 14.53125 12.394531 14.710938 11.960938 C 14.890625 11.523438 15.148438 11.140625 15.480469 10.804688 C 15.816406 10.472656 16.199219 10.214844 16.636719 10.035156 C 17.070312 9.855469 17.523438 9.765625 17.996094 9.765625 C 18.46875 9.765625 18.921875 9.855469 19.355469 10.035156 C 19.792969 10.214844 20.175781 10.472656 20.511719 10.804688 C 20.84375 11.140625 21.101562 11.523438 21.28125 11.960938 C 21.460938 12.394531 21.550781 12.847656 21.550781 13.320312 C 21.550781 13.792969 21.460938 14.246094 21.28125 14.679688 C 21.101562 15.117188 20.84375 15.5 20.511719 15.835938 C 20.175781 16.167969 19.792969 16.425781 19.355469 16.605469 C 18.921875 16.785156 18.46875 16.875 17.996094 16.875 Z M 17.996094 16.875 "/></g></g></svg>