<svg xmlns="http://www.w3.org/2000/svg" xmlns:xlink="http://www.w3.org/1999/xlink" width="64" zoomAndPan="magnify" viewBox="0 0 48 48" height="64" preserveAspectRatio="xMidYMid meet" version="1.2"><defs><clipPath id="d423bec7c6"><path d="M 0.488281 0 L 47.507812 0 L 47.507812 47.019531 L 0.488281 47.019531 Z M 0.488281 0 "/></clipPath><clipPath id="654f853708"><path d="M 0.488281 0.882812 L 47.507812 0.882812 L 47.507812 46 L 0.488281 46 Z M 0.488281 0.882812 "/></clipPath></defs><g id="e11d056ad4"><g clip-rule="nonzero" clip-path="url(#d423bec7c6)"><path style=" stroke:none;fill-rule:nonzero;fill:#ffffff;fill-opacity:1;" d="M 0.488281 0 L 47.511719 0 L 47.511719 47.019531 L 0.488281 47.019531 Z M 0.488281 0 "/><path style=" stroke:none;fill-rule:nonzero;fill:#ffffff;fill-opacity:1;" d="M 0.488281 0 L 47.511719 0 L 47.511719 47.019531 L 0.488281 47.019531 Z M 0.488281 0 "/></g><g clip-rule="nonzero" clip-path="url(#654f853708)"><path style=" stroke:none;fill-rule:nonzero;fill:#00bf63;fill-opacity:1;" d="M 38.117188 30.757812 C 38.105469 30.761719 38.09375 30.765625 38.085938 30.769531 L 26.722656 34.765625 C 26.5 33.675781 25.859375 32.566406 24.726562 32.0625 L 17.050781 28.628906 C 15.179688 27.796875 13.566406 28.121094 12.234375 28.550781 L 7.476562 30.09375 L 7.257812 29.335938 C 7.203125 29.152344 7.117188 28.988281 6.996094 28.839844 C 6.878906 28.691406 6.734375 28.574219 6.570312 28.480469 C 6.402344 28.390625 6.222656 28.332031 6.035156 28.3125 C 5.847656 28.292969 5.660156 28.308594 5.476562 28.363281 L 1.734375 29.457031 C 1.554688 29.511719 1.386719 29.597656 1.238281 29.71875 C 1.089844 29.835938 0.972656 29.980469 0.878906 30.144531 C 0.789062 30.3125 0.734375 30.488281 0.710938 30.679688 C 0.691406 30.867188 0.707031 31.054688 0.761719 31.234375 L 4.765625 44.933594 C 4.820312 45.117188 4.90625 45.28125 5.027344 45.429688 C 5.144531 45.578125 5.289062 45.699219 5.453125 45.792969 C 5.621094 45.882812 5.800781 45.9375 5.988281 45.960938 C 6.175781 45.980469 6.363281 45.964844 6.546875 45.910156 L 10.292969 44.816406 C 10.476562 44.761719 10.640625 44.675781 10.789062 44.554688 C 10.933594 44.4375 11.054688 44.292969 11.144531 44.125 C 11.238281 43.960938 11.292969 43.78125 11.3125 43.59375 C 11.332031 43.40625 11.316406 43.21875 11.261719 43.039062 L 10.96875 42.027344 L 12.410156 41.648438 L 19.011719 44.0625 C 20.003906 44.425781 21.03125 44.753906 22.085938 44.753906 C 22.816406 44.757812 23.503906 44.59375 24.152344 44.261719 L 38.84375 36.753906 C 38.847656 36.75 38.855469 36.75 38.859375 36.746094 C 38.992188 36.675781 39.128906 36.605469 39.273438 36.53125 C 40.390625 35.960938 42.082031 35.097656 41.402344 32.78125 C 40.960938 31.265625 39.484375 30.359375 38.117188 30.757812 Z M 10.027344 43.515625 C 10.003906 43.550781 9.976562 43.578125 9.933594 43.589844 L 6.1875 44.6875 C 6.089844 44.710938 6.023438 44.675781 5.992188 44.578125 L 1.984375 30.878906 C 1.972656 30.835938 1.980469 30.796875 2 30.757812 C 2.019531 30.722656 2.050781 30.695312 2.089844 30.683594 L 2.09375 30.683594 L 5.839844 29.585938 C 5.851562 29.582031 5.867188 29.582031 5.878906 29.582031 C 5.90625 29.582031 5.933594 29.589844 5.957031 29.601562 C 5.992188 29.621094 6.019531 29.652344 6.03125 29.691406 L 10.039062 43.398438 C 10.050781 43.4375 10.046875 43.476562 10.027344 43.515625 Z M 38.695312 35.394531 C 38.550781 35.464844 38.402344 35.542969 38.257812 35.621094 L 23.574219 43.125 C 22.375 43.734375 21.199219 43.503906 19.449219 42.863281 L 12.660156 40.378906 C 12.535156 40.335938 12.410156 40.328125 12.28125 40.363281 L 10.609375 40.800781 L 7.835938 31.316406 L 12.628906 29.765625 C 14.207031 29.253906 15.339844 29.265625 16.527344 29.796875 L 24.207031 33.226562 C 24.988281 33.574219 25.535156 34.566406 25.535156 35.636719 C 25.535156 35.636719 25.535156 35.640625 25.535156 35.644531 C 25.535156 35.644531 25.535156 35.648438 25.535156 35.652344 C 25.535156 35.960938 25.480469 36.261719 25.375 36.550781 C 24.867188 37.878906 23.566406 37.929688 22.601562 37.566406 L 17.433594 35.625 C 17.269531 35.566406 17.105469 35.570312 16.945312 35.644531 C 16.785156 35.714844 16.671875 35.835938 16.613281 36 C 16.550781 36.164062 16.554688 36.328125 16.628906 36.488281 C 16.703125 36.648438 16.820312 36.761719 16.984375 36.820312 L 22.152344 38.761719 C 22.625 38.945312 23.113281 39.035156 23.617188 39.042969 C 24.949219 39.042969 26.074219 38.304688 26.566406 37.003906 C 26.675781 36.710938 26.75 36.40625 26.785156 36.09375 L 38.488281 31.976562 C 39.167969 31.789062 39.9375 32.320312 40.179688 33.140625 C 40.542969 34.382812 39.917969 34.765625 38.695312 35.394531 Z M 24.703125 13.0625 C 23.046875 13.3125 21.5625 14.105469 20.359375 15.386719 C 19.019531 16.8125 18.097656 18.800781 17.769531 20.984375 L 17.417969 23.292969 C 17.332031 23.8125 17.363281 24.328125 17.507812 24.832031 C 17.65625 25.339844 17.902344 25.792969 18.253906 26.1875 C 19.914062 28.113281 25.960938 28.265625 27.785156 28.265625 L 27.792969 28.265625 C 29.128906 28.265625 35.898438 28.164062 37.601562 26.1875 C 37.949219 25.792969 38.199219 25.339844 38.34375 24.832031 C 38.492188 24.328125 38.519531 23.8125 38.433594 23.292969 L 38.085938 20.984375 C 37.757812 18.800781 36.835938 16.8125 35.496094 15.386719 C 34.292969 14.105469 32.808594 13.3125 31.152344 13.0625 C 31.441406 12.824219 31.703125 12.558594 31.941406 12.269531 C 33.085938 10.882812 33.6875 8.929688 33.6875 6.617188 C 33.6875 6.238281 33.652344 5.863281 33.578125 5.492188 C 33.503906 5.121094 33.394531 4.761719 33.25 4.414062 C 33.105469 4.0625 32.925781 3.730469 32.71875 3.417969 C 32.507812 3.101562 32.269531 2.8125 32 2.542969 C 31.734375 2.277344 31.441406 2.039062 31.128906 1.828125 C 30.8125 1.617188 30.480469 1.441406 30.132812 1.296875 C 29.78125 1.152344 29.421875 1.042969 29.050781 0.96875 C 28.679688 0.894531 28.304688 0.859375 27.925781 0.859375 C 27.550781 0.859375 27.175781 0.894531 26.804688 0.96875 C 26.433594 1.042969 26.074219 1.152344 25.722656 1.296875 C 25.375 1.441406 25.042969 1.617188 24.726562 1.828125 C 24.414062 2.039062 24.121094 2.277344 23.855469 2.542969 C 23.585938 2.8125 23.347656 3.101562 23.136719 3.417969 C 22.925781 3.730469 22.75 4.0625 22.605469 4.414062 C 22.460938 4.761719 22.351562 5.121094 22.277344 5.492188 C 22.203125 5.863281 22.167969 6.238281 22.164062 6.617188 C 22.164062 8.929688 22.769531 10.882812 23.914062 12.269531 C 24.148438 12.558594 24.414062 12.824219 24.699219 13.0625 Z M 36.824219 21.175781 L 37.171875 23.484375 C 37.292969 24.195312 37.117188 24.816406 36.632812 25.351562 L 36.632812 25.355469 C 35.9375 26.167969 32.675781 26.988281 27.789062 26.988281 L 27.785156 26.988281 C 23.570312 26.988281 20.050781 26.316406 19.21875 25.351562 C 18.738281 24.816406 18.558594 24.195312 18.679688 23.484375 L 19.03125 21.175781 C 19.550781 17.730469 21.867188 14.253906 25.867188 14.253906 L 29.988281 14.253906 C 33.988281 14.253906 36.300781 17.730469 36.824219 21.175781 Z M 27.925781 2.132812 C 28.222656 2.132812 28.511719 2.160156 28.800781 2.21875 C 29.089844 2.277344 29.371094 2.363281 29.644531 2.476562 C 29.914062 2.585938 30.171875 2.726562 30.417969 2.890625 C 30.664062 3.054688 30.890625 3.238281 31.097656 3.445312 C 31.304688 3.65625 31.492188 3.882812 31.65625 4.125 C 31.820312 4.371094 31.957031 4.628906 32.070312 4.902344 C 32.183594 5.171875 32.269531 5.453125 32.324219 5.742188 C 32.382812 6.03125 32.414062 6.324219 32.414062 6.617188 C 32.414062 10.988281 30.085938 12.976562 27.925781 12.976562 C 25.765625 12.976562 23.441406 10.988281 23.441406 6.617188 C 23.441406 6.324219 23.472656 6.03125 23.527344 5.742188 C 23.585938 5.453125 23.671875 5.171875 23.785156 4.902344 C 23.898438 4.628906 24.035156 4.371094 24.199219 4.125 C 24.363281 3.882812 24.550781 3.65625 24.757812 3.445312 C 24.964844 3.238281 25.191406 3.054688 25.4375 2.890625 C 25.679688 2.726562 25.941406 2.585938 26.210938 2.476562 C 26.484375 2.363281 26.765625 2.277344 27.050781 2.21875 C 27.339844 2.160156 27.632812 2.132812 27.925781 2.132812 Z M 5.058594 31.605469 C 5.105469 31.777344 5.082031 31.941406 4.992188 32.09375 C 4.902344 32.246094 4.769531 32.34375 4.597656 32.386719 C 4.425781 32.429688 4.261719 32.40625 4.109375 32.3125 C 3.957031 32.222656 3.863281 32.089844 3.820312 31.914062 L 3.820312 31.90625 C 3.777344 31.734375 3.800781 31.574219 3.890625 31.421875 C 3.980469 31.269531 4.113281 31.175781 4.28125 31.132812 C 4.453125 31.089844 4.613281 31.113281 4.765625 31.203125 C 4.917969 31.292969 5.015625 31.425781 5.058594 31.597656 Z M 36.78125 7.976562 L 36.78125 13.5 C 36.78125 13.671875 36.84375 13.820312 36.96875 13.945312 C 37.09375 14.066406 37.242188 14.128906 37.417969 14.128906 C 37.59375 14.128906 37.742188 14.066406 37.867188 13.945312 C 37.992188 13.820312 38.054688 13.671875 38.054688 13.5 L 38.054688 7.976562 C 38.472656 7.839844 38.808594 7.59375 39.0625 7.242188 C 39.320312 6.886719 39.449219 6.488281 39.449219 6.050781 C 39.449219 5.617188 39.320312 5.21875 39.0625 4.863281 C 38.808594 4.511719 38.472656 4.265625 38.054688 4.128906 L 38.054688 3.023438 C 38.054688 2.847656 37.992188 2.699219 37.867188 2.578125 C 37.742188 2.453125 37.59375 2.394531 37.417969 2.394531 C 37.242188 2.394531 37.09375 2.453125 36.96875 2.578125 C 36.84375 2.699219 36.78125 2.847656 36.78125 3.023438 L 36.78125 4.128906 C 36.363281 4.265625 36.027344 4.511719 35.773438 4.867188 C 35.515625 5.21875 35.390625 5.617188 35.390625 6.054688 C 35.390625 6.488281 35.515625 6.886719 35.773438 7.242188 C 36.027344 7.59375 36.363281 7.839844 36.78125 7.976562 Z M 37.417969 5.300781 C 37.625 5.300781 37.804688 5.375 37.949219 5.519531 C 38.097656 5.667969 38.171875 5.84375 38.171875 6.050781 C 38.171875 6.261719 38.097656 6.4375 37.949219 6.585938 C 37.804688 6.730469 37.625 6.804688 37.417969 6.804688 C 37.210938 6.804688 37.035156 6.730469 36.886719 6.585938 C 36.738281 6.4375 36.667969 6.261719 36.667969 6.054688 C 36.667969 5.84375 36.738281 5.667969 36.886719 5.519531 C 37.035156 5.375 37.210938 5.300781 37.417969 5.300781 Z M 9.898438 17.78125 C 10.140625 17.78125 10.375 17.828125 10.597656 17.917969 C 10.824219 18.011719 11.023438 18.144531 11.195312 18.316406 C 11.367188 18.488281 11.5 18.6875 11.59375 18.910156 C 11.683594 19.136719 11.730469 19.371094 11.730469 19.613281 C 11.730469 19.789062 11.792969 19.941406 11.917969 20.066406 C 12.042969 20.191406 12.195312 20.25 12.371094 20.25 C 12.546875 20.25 12.695312 20.191406 12.820312 20.066406 C 12.945312 19.941406 13.007812 19.789062 13.007812 19.613281 C 13.007812 19.371094 13.054688 19.136719 13.148438 18.910156 C 13.242188 18.6875 13.375 18.488281 13.546875 18.316406 C 13.71875 18.144531 13.917969 18.011719 14.140625 17.917969 C 14.367188 17.828125 14.597656 17.78125 14.84375 17.78125 C 15.019531 17.78125 15.171875 17.71875 15.300781 17.59375 C 15.425781 17.46875 15.488281 17.320312 15.488281 17.140625 C 15.488281 16.964844 15.425781 16.8125 15.300781 16.6875 C 15.171875 16.5625 15.019531 16.5 14.84375 16.503906 C 14.597656 16.503906 14.367188 16.457031 14.140625 16.363281 C 13.917969 16.269531 13.71875 16.136719 13.546875 15.964844 C 13.375 15.792969 13.242188 15.59375 13.148438 15.371094 C 13.054688 15.144531 13.007812 14.910156 13.007812 14.667969 C 13.007812 14.492188 12.945312 14.34375 12.820312 14.21875 C 12.695312 14.09375 12.546875 14.03125 12.371094 14.03125 C 12.195312 14.03125 12.042969 14.09375 11.917969 14.21875 C 11.792969 14.34375 11.730469 14.492188 11.730469 14.667969 C 11.730469 14.910156 11.683594 15.144531 11.59375 15.371094 C 11.5 15.59375 11.367188 15.792969 11.195312 15.964844 C 11.023438 16.136719 10.824219 16.269531 10.597656 16.363281 C 10.375 16.457031 10.140625 16.503906 9.898438 16.503906 C 9.71875 16.5 9.566406 16.5625 9.441406 16.6875 C 9.316406 16.8125 9.253906 16.964844 9.253906 17.140625 C 9.253906 17.320312 9.316406 17.46875 9.441406 17.59375 C 9.566406 17.71875 9.71875 17.78125 9.898438 17.78125 Z M 12.371094 16.554688 C 12.539062 16.777344 12.734375 16.972656 12.957031 17.140625 C 12.734375 17.3125 12.539062 17.507812 12.371094 17.726562 C 12.199219 17.507812 12.003906 17.3125 11.785156 17.140625 C 12.003906 16.972656 12.199219 16.777344 12.371094 16.554688 Z M 46.070312 4.875 L 46.070312 3.023438 C 46.070312 2.847656 46.007812 2.695312 45.886719 2.574219 C 45.761719 2.449219 45.609375 2.386719 45.433594 2.386719 C 45.257812 2.386719 45.105469 2.449219 44.980469 2.574219 C 44.859375 2.695312 44.796875 2.847656 44.796875 3.023438 L 44.796875 4.875 C 44.378906 5.011719 44.042969 5.257812 43.789062 5.613281 C 43.53125 5.96875 43.402344 6.363281 43.402344 6.800781 C 43.402344 7.238281 43.53125 7.632812 43.789062 7.988281 C 44.042969 8.34375 44.378906 8.589844 44.796875 8.726562 L 44.796875 13.5 C 44.796875 13.675781 44.859375 13.824219 44.980469 13.949219 C 45.105469 14.074219 45.257812 14.136719 45.433594 14.136719 C 45.609375 14.136719 45.761719 14.074219 45.886719 13.949219 C 46.007812 13.824219 46.070312 13.675781 46.070312 13.5 L 46.070312 8.726562 C 46.488281 8.589844 46.824219 8.34375 47.078125 7.988281 C 47.335938 7.632812 47.460938 7.238281 47.460938 6.800781 C 47.460938 6.363281 47.335938 5.96875 47.078125 5.613281 C 46.824219 5.257812 46.488281 5.011719 46.070312 4.875 Z M 45.433594 7.554688 C 45.226562 7.554688 45.046875 7.480469 44.902344 7.332031 C 44.753906 7.1875 44.679688 7.007812 44.679688 6.800781 C 44.679688 6.59375 44.753906 6.417969 44.902344 6.269531 C 45.046875 6.121094 45.226562 6.050781 45.433594 6.050781 C 45.640625 6.050781 45.820312 6.121094 45.964844 6.269531 C 46.113281 6.417969 46.1875 6.59375 46.1875 6.800781 C 46.183594 7.007812 46.113281 7.1875 45.964844 7.332031 C 45.816406 7.480469 45.640625 7.554688 45.433594 7.554688 Z M 14.253906 11.292969 C 14.574219 11.292969 14.882812 11.355469 15.179688 11.476562 C 15.472656 11.597656 15.734375 11.773438 15.960938 12 C 16.1875 12.226562 16.363281 12.488281 16.488281 12.785156 C 16.609375 13.082031 16.671875 13.390625 16.671875 13.710938 C 16.667969 13.890625 16.730469 14.039062 16.855469 14.167969 C 16.980469 14.292969 17.132812 14.355469 17.308594 14.355469 C 17.488281 14.355469 17.640625 14.292969 17.765625 14.167969 C 17.890625 14.039062 17.949219 13.890625 17.949219 13.710938 C 17.949219 13.390625 18.011719 13.082031 18.132812 12.785156 C 18.257812 12.488281 18.433594 12.226562 18.660156 12 C 18.886719 11.773438 19.148438 11.597656 19.445312 11.476562 C 19.742188 11.351562 20.050781 11.292969 20.371094 11.292969 C 20.542969 11.289062 20.695312 11.226562 20.816406 11.101562 C 20.9375 10.976562 21 10.828125 21 10.652344 C 21 10.480469 20.9375 10.328125 20.816406 10.203125 C 20.695312 10.082031 20.542969 10.015625 20.371094 10.015625 C 20.050781 10.015625 19.738281 9.953125 19.445312 9.832031 C 19.148438 9.707031 18.886719 9.53125 18.660156 9.304688 C 18.429688 9.078125 18.257812 8.816406 18.132812 8.519531 C 18.011719 8.222656 17.949219 7.914062 17.949219 7.59375 C 17.949219 7.414062 17.890625 7.261719 17.765625 7.136719 C 17.640625 7.011719 17.488281 6.949219 17.308594 6.949219 C 17.132812 6.949219 16.980469 7.011719 16.855469 7.136719 C 16.730469 7.261719 16.667969 7.414062 16.671875 7.59375 C 16.671875 7.914062 16.609375 8.222656 16.488281 8.519531 C 16.363281 8.816406 16.191406 9.078125 15.960938 9.304688 C 15.734375 9.53125 15.472656 9.707031 15.179688 9.828125 C 14.882812 9.953125 14.574219 10.015625 14.253906 10.015625 C 14.074219 10.011719 13.921875 10.074219 13.796875 10.199219 C 13.667969 10.324219 13.605469 10.476562 13.605469 10.652344 C 13.605469 10.832031 13.667969 10.984375 13.796875 11.105469 C 13.921875 11.230469 14.074219 11.292969 14.253906 11.292969 Z M 17.308594 9.667969 C 17.574219 10.058594 17.902344 10.386719 18.296875 10.652344 C 17.902344 10.917969 17.574219 11.246094 17.308594 11.636719 C 17.042969 11.246094 16.714844 10.917969 16.324219 10.652344 C 16.714844 10.386719 17.042969 10.058594 17.308594 9.667969 Z M 42.066406 8.628906 L 42.066406 3.023438 C 42.0625 2.847656 42 2.699219 41.878906 2.574219 C 41.753906 2.449219 41.601562 2.386719 41.425781 2.386719 C 41.25 2.386719 41.101562 2.449219 40.976562 2.574219 C 40.851562 2.699219 40.789062 2.847656 40.789062 3.023438 L 40.789062 8.628906 C 40.375 8.765625 40.039062 9.011719 39.78125 9.367188 C 39.527344 9.71875 39.398438 10.117188 39.398438 10.554688 C 39.398438 10.992188 39.527344 11.386719 39.78125 11.742188 C 40.039062 12.097656 40.375 12.34375 40.789062 12.480469 L 40.789062 13.5 C 40.789062 13.675781 40.851562 13.824219 40.976562 13.949219 C 41.101562 14.074219 41.25 14.136719 41.425781 14.136719 C 41.601562 14.136719 41.753906 14.074219 41.878906 13.949219 C 42 13.824219 42.0625 13.675781 42.066406 13.5 L 42.066406 12.480469 C 42.480469 12.34375 42.816406 12.097656 43.070312 11.742188 C 43.328125 11.386719 43.453125 10.992188 43.453125 10.554688 C 43.453125 10.117188 43.328125 9.722656 43.070312 9.367188 C 42.816406 9.011719 42.480469 8.765625 42.066406 8.628906 Z M 41.425781 11.308594 C 41.21875 11.308594 41.039062 11.234375 40.894531 11.085938 C 40.746094 10.941406 40.671875 10.761719 40.671875 10.554688 C 40.671875 10.347656 40.746094 10.167969 40.890625 10.019531 C 41.039062 9.875 41.21875 9.800781 41.425781 9.800781 C 41.632812 9.800781 41.8125 9.875 41.957031 10.023438 C 42.105469 10.167969 42.179688 10.347656 42.179688 10.554688 C 42.179688 10.761719 42.105469 10.941406 41.957031 11.085938 C 41.8125 11.234375 41.632812 11.308594 41.425781 11.308594 Z M 41.425781 11.308594 "/></g></g></svg>