<svg xmlns="http://www.w3.org/2000/svg" xmlns:xlink="http://www.w3.org/1999/xlink" width="48" zoomAndPan="magnify" viewBox="0 0 36 36.000001" height="48" preserveAspectRatio="xMidYMid meet" version="1.2"><defs><clipPath id="ca32950344"><path d="M 0.488281 0 L 35.511719 0 L 35.511719 35.027344 L 0.488281 35.027344 Z M 0.488281 0 "/></clipPath><clipPath id="e671d3edf5"><path d="M 0.488281 0 L 7.785156 0 L 7.785156 7.296875 L 0.488281 7.296875 Z M 0.488281 0 "/></clipPath></defs><g id="dfdf8223c7"><g clip-rule="nonzero" clip-path="url(#ca32950344)"><path style=" stroke:none;fill-rule:nonzero;fill:#ffffff;fill-opacity:1;" d="M 0.488281 0 L 35.511719 0 L 35.511719 35.027344 L 0.488281 35.027344 Z M 0.488281 0 "/><path style=" stroke:none;fill-rule:nonzero;fill:#ffffff;fill-opacity:1;" d="M 0.488281 0 L 35.511719 0 L 35.511719 35.027344 L 0.488281 35.027344 Z M 0.488281 0 "/></g><g clip-rule="nonzero" clip-path="url(#e671d3edf5)"><path style=" stroke:none;fill-rule:nonzero;fill:#ff5757;fill-opacity:1;" d="M 4.230469 0.0820312 C 3.757812 0.0820312 3.304688 0.171875 2.867188 0.351562 C 2.429688 0.53125 2.042969 0.789062 1.707031 1.125 C 1.375 1.460938 1.117188 1.847656 0.933594 2.28125 C 0.753906 2.71875 0.664062 3.175781 0.664062 3.648438 C 0.664062 4.121094 0.753906 4.578125 0.933594 5.015625 C 1.117188 5.453125 1.375 5.835938 1.707031 6.171875 C 2.042969 6.507812 2.429688 6.765625 2.867188 6.945312 C 3.304688 7.125 3.757812 7.21875 4.230469 7.21875 C 4.703125 7.21875 5.160156 7.125 5.597656 6.945312 C 6.035156 6.765625 6.421875 6.507812 6.753906 6.171875 C 7.089844 5.835938 7.347656 5.453125 7.527344 5.015625 C 7.710938 4.578125 7.800781 4.121094 7.800781 3.648438 C 7.800781 3.175781 7.710938 2.71875 7.527344 2.28125 C 7.347656 1.847656 7.089844 1.460938 6.753906 1.125 C 6.421875 0.789062 6.035156 0.53125 5.597656 0.351562 C 5.160156 0.171875 4.703125 0.0820312 4.230469 0.0820312 Z M 6.4375 5.355469 C 6.339844 5.667969 5.910156 6.128906 5.519531 6.128906 L 5.492188 6.125 C 4.898438 6.097656 4.09375 5.535156 3.34375 4.628906 L 3.066406 4.292969 C 2.316406 3.386719 1.921875 2.5 2.015625 1.921875 C 2.078125 1.515625 2.683594 1.171875 3.03125 1.171875 C 3.199219 1.171875 3.261719 1.253906 3.285156 1.304688 C 3.480469 1.652344 3.722656 2.257812 3.722656 2.476562 L 3.722656 2.492188 L 3.71875 2.507812 C 3.675781 2.621094 3.578125 2.675781 3.492188 2.722656 C 3.382812 2.785156 3.316406 2.828125 3.308594 2.949219 C 3.308594 2.984375 3.339844 3.152344 3.832031 3.761719 L 4.046875 4.015625 C 4.542969 4.605469 4.699219 4.667969 4.734375 4.671875 C 4.855469 4.6875 4.910156 4.636719 5 4.542969 C 5.0625 4.46875 5.136719 4.386719 5.261719 4.371094 L 5.277344 4.367188 L 5.292969 4.371094 C 5.507812 4.417969 6.0625 4.773438 6.375 5.039062 C 6.421875 5.070312 6.5 5.160156 6.4375 5.355469 Z M 6.4375 5.355469 "/></g></g></svg>