<svg xmlns="http://www.w3.org/2000/svg" xmlns:xlink="http://www.w3.org/1999/xlink" width="48" zoomAndPan="magnify" viewBox="0 0 36 36.000001" height="48" preserveAspectRatio="xMidYMid meet" version="1.2"><defs><clipPath id="aeadeb4c6d"><path d="M 0.488281 0 L 35.511719 0 L 35.511719 35.027344 L 0.488281 35.027344 Z M 0.488281 0 "/></clipPath><clipPath id="f65ee39177"><path d="M 0.488281 1 L 35.511719 1 L 35.511719 34 L 0.488281 34 Z M 0.488281 1 "/></clipPath></defs><g id="9afdebd3f4"><g clip-rule="nonzero" clip-path="url(#aeadeb4c6d)"><path style=" stroke:none;fill-rule:nonzero;fill:#ffffff;fill-opacity:1;" d="M 0.488281 0 L 35.511719 0 L 35.511719 35.027344 L 0.488281 35.027344 Z M 0.488281 0 "/><path style=" stroke:none;fill-rule:nonzero;fill:#ffffff;fill-opacity:1;" d="M 0.488281 0 L 35.511719 0 L 35.511719 35.027344 L 0.488281 35.027344 Z M 0.488281 0 "/></g><g clip-rule="nonzero" clip-path="url(#f65ee39177)"><path style=" stroke:none;fill-rule:nonzero;fill:#38b6ff;fill-opacity:1;" d="M 6.027344 1.417969 C 5.050781 1.367188 4.1875 1.648438 3.429688 2.261719 C 2.46875 3.160156 1.738281 4.214844 1.234375 5.425781 C 0.730469 6.640625 0.496094 7.902344 0.535156 9.214844 C 0.65625 10.8125 1.011719 12.359375 1.601562 13.847656 C 2.191406 15.339844 2.992188 16.707031 3.996094 17.957031 L 4.207031 18.277344 C 6.015625 21.097656 8.175781 23.609375 10.691406 25.820312 C 13.207031 28.03125 15.980469 29.851562 19.007812 31.277344 C 21.757812 32.613281 24.652344 33.429688 27.691406 33.734375 C 28.242188 33.730469 28.78125 33.660156 29.3125 33.523438 C 31.449219 33.078125 34.128906 31.480469 34.75 29.703125 C 35.238281 28.527344 35.429688 27.300781 35.332031 26.03125 C 35.0625 25.878906 34.785156 25.738281 34.5 25.609375 L 33.976562 25.34375 C 31.535156 24.175781 28.539062 22.703125 27.945312 22.46875 C 27.769531 22.414062 27.589844 22.386719 27.410156 22.382812 C 27.050781 22.378906 26.785156 22.535156 26.617188 22.851562 L 26.269531 23.351562 C 25.609375 24.3125 24.902344 25.234375 24.144531 26.117188 C 23.746094 26.507812 23.269531 26.753906 22.71875 26.855469 C 22.167969 26.957031 21.632812 26.898438 21.121094 26.675781 L 20.851562 26.554688 C 18.191406 25.488281 15.804688 23.988281 13.6875 22.054688 C 11.65625 20.183594 9.9375 18.054688 8.53125 15.671875 C 8.394531 15.453125 8.300781 15.214844 8.25 14.960938 C 8.199219 14.707031 8.191406 14.453125 8.230469 14.199219 C 8.269531 13.941406 8.351562 13.703125 8.476562 13.476562 C 8.601562 13.25 8.761719 13.050781 8.957031 12.882812 C 9.214844 12.554688 9.492188 12.25 9.800781 11.96875 C 9.953125 11.761719 10.148438 11.589844 10.3125 11.390625 C 10.675781 11.023438 10.972656 10.609375 11.207031 10.152344 C 11.308594 9.804688 11.261719 9.480469 11.070312 9.175781 C 10.894531 8.855469 10.179688 7.054688 9.125 4.546875 L 8.296875 2.484375 C 7.867188 1.449219 7.742188 1.4375 7.011719 1.4375 L 6.761719 1.4375 C 6.542969 1.425781 6.277344 1.417969 6.027344 1.417969 Z M 6.027344 1.417969 "/></g></g></svg>