<svg xmlns="http://www.w3.org/2000/svg" xmlns:xlink="http://www.w3.org/1999/xlink" width="64" zoomAndPan="magnify" viewBox="0 0 48 48" height="64" preserveAspectRatio="xMidYMid meet" version="1.2"><defs><clipPath id="0588c3d87e"><path d="M 0.488281 0 L 47.507812 0 L 47.507812 47.019531 L 0.488281 47.019531 Z M 0.488281 0 "/></clipPath><clipPath id="4ff5cefde4"><path d="M 12 3 L 47.507812 3 L 47.507812 32 L 12 32 Z M 12 3 "/></clipPath><clipPath id="dc7a1dded5"><path d="M 10 1.585938 L 39 1.585938 L 39 10 L 10 10 Z M 10 1.585938 "/></clipPath><clipPath id="4ea48916e5"><path d="M 0.488281 8 L 45 8 L 45 45.667969 L 0.488281 45.667969 Z M 0.488281 8 "/></clipPath></defs><g id="256af5f7b4"><g clip-rule="nonzero" clip-path="url(#0588c3d87e)"><path style=" stroke:none;fill-rule:nonzero;fill:#ffffff;fill-opacity:1;" d="M 0.488281 0 L 47.511719 0 L 47.511719 47.019531 L 0.488281 47.019531 Z M 0.488281 0 "/><path style=" stroke:none;fill-rule:nonzero;fill:#ffffff;fill-opacity:1;" d="M 0.488281 0 L 47.511719 0 L 47.511719 47.019531 L 0.488281 47.019531 Z M 0.488281 0 "/></g><g clip-rule="nonzero" clip-path="url(#4ff5cefde4)"><path style=" stroke:none;fill-rule:nonzero;fill:#00bf63;fill-opacity:1;" d="M 15.355469 18.976562 L 12.828125 21.503906 L 22.613281 31.289062 L 47.511719 6.390625 L 44.980469 3.863281 L 22.613281 26.230469 Z M 15.355469 18.976562 "/></g><path style=" stroke:none;fill-rule:nonzero;fill:#00bf63;fill-opacity:1;" d="M 7.398438 27.328125 C 7.707031 28.535156 8.160156 29.703125 8.75 30.800781 L 10.640625 29.789062 C 10.132812 28.84375 9.742188 27.839844 9.476562 26.796875 C 9.207031 25.730469 9.070312 24.621094 9.070312 23.503906 C 9.070312 21.703125 9.421875 19.957031 10.117188 18.3125 C 10.789062 16.726562 11.75 15.300781 12.972656 14.074219 C 14.199219 12.851562 15.625 11.890625 17.214844 11.214844 C 18.855469 10.523438 20.601562 10.167969 22.402344 10.167969 C 24.203125 10.167969 25.949219 10.523438 27.59375 11.214844 C 29.183594 11.890625 30.609375 12.851562 31.832031 14.074219 C 31.984375 14.226562 32.132812 14.382812 32.277344 14.539062 L 33.792969 13.023438 C 33.648438 12.867188 33.5 12.710938 33.351562 12.558594 C 32.648438 11.859375 31.878906 11.222656 31.058594 10.671875 C 30.230469 10.109375 29.34375 9.628906 28.429688 9.242188 C 26.519531 8.433594 24.492188 8.027344 22.402344 8.027344 C 20.3125 8.027344 18.285156 8.433594 16.375 9.242188 C 15.457031 9.628906 14.574219 10.109375 13.746094 10.671875 C 12.925781 11.222656 12.15625 11.859375 11.457031 12.558594 C 10.753906 13.261719 10.121094 14.03125 9.566406 14.851562 C 9.007812 15.679688 8.527344 16.5625 8.140625 17.480469 C 7.332031 19.390625 6.921875 21.417969 6.921875 23.507812 C 6.925781 24.800781 7.085938 26.085938 7.398438 27.328125 Z M 7.398438 27.328125 "/><path style=" stroke:none;fill-rule:nonzero;fill:#00bf63;fill-opacity:1;" d="M 11.640625 33.796875 L 13.757812 39.257812 L 15.105469 37.160156 C 17.339844 38.359375 19.835938 38.984375 22.402344 38.984375 C 24.492188 38.984375 26.519531 38.578125 28.429688 37.769531 C 29.347656 37.382812 30.230469 36.902344 31.058594 36.339844 C 31.878906 35.789062 32.652344 35.152344 33.351562 34.453125 C 34.050781 33.753906 34.6875 32.980469 35.242188 32.160156 C 35.800781 31.332031 36.28125 30.449219 36.667969 29.53125 C 37.476562 27.621094 37.882812 25.59375 37.882812 23.503906 C 37.882812 21.878906 37.636719 20.292969 37.148438 18.773438 L 35.40625 20.515625 C 35.628906 21.488281 35.742188 22.488281 35.742188 23.503906 C 35.742188 25.304688 35.390625 27.050781 34.695312 28.695312 C 34.023438 30.285156 33.0625 31.710938 31.835938 32.933594 C 30.609375 34.160156 29.183594 35.121094 27.597656 35.792969 C 25.953125 36.488281 24.207031 36.839844 22.40625 36.839844 C 20.25 36.839844 18.160156 36.328125 16.273438 35.351562 L 17.484375 33.460938 Z M 11.640625 33.796875 "/><g clip-rule="nonzero" clip-path="url(#dc7a1dded5)"><path style=" stroke:none;fill-rule:nonzero;fill:#00bf63;fill-opacity:1;" d="M 16.855469 4.523438 C 18.648438 4 20.515625 3.734375 22.40625 3.734375 C 25.074219 3.734375 27.664062 4.257812 30.101562 5.289062 C 31.273438 5.785156 32.402344 6.398438 33.457031 7.113281 C 34.503906 7.820312 35.492188 8.632812 36.386719 9.527344 C 36.539062 9.679688 36.6875 9.832031 36.832031 9.988281 L 38.347656 8.472656 C 38.203125 8.316406 38.054688 8.160156 37.902344 8.011719 C 36.910156 7.019531 35.820312 6.117188 34.660156 5.335938 C 33.488281 4.542969 32.234375 3.863281 30.9375 3.3125 C 29.613281 2.753906 28.230469 2.324219 26.820312 2.035156 C 25.375 1.742188 23.890625 1.59375 22.402344 1.59375 C 20.3125 1.59375 18.242188 1.886719 16.25 2.46875 C 14.324219 3.03125 12.480469 3.859375 10.773438 4.929688 L 11.914062 6.746094 C 13.453125 5.78125 15.117188 5.03125 16.855469 4.523438 Z M 16.855469 4.523438 "/></g><g clip-rule="nonzero" clip-path="url(#4ea48916e5)"><path style=" stroke:none;fill-rule:nonzero;fill:#00bf63;fill-opacity:1;" d="M 42.597656 14.976562 C 42.4375 14.59375 42.261719 14.214844 42.078125 13.839844 L 40.464844 15.453125 C 40.519531 15.574219 40.570312 15.691406 40.621094 15.8125 C 41.652344 18.25 42.175781 20.835938 42.175781 23.507812 C 42.175781 26.175781 41.652344 28.765625 40.621094 31.203125 C 40.125 32.371094 39.511719 33.503906 38.796875 34.558594 C 38.089844 35.605469 37.277344 36.589844 36.382812 37.488281 C 35.488281 38.382812 34.503906 39.195312 33.457031 39.902344 C 32.398438 40.617188 31.269531 41.230469 30.097656 41.726562 C 27.660156 42.757812 25.074219 43.277344 22.402344 43.277344 C 19.734375 43.277344 17.144531 42.757812 14.707031 41.726562 C 13.535156 41.230469 12.40625 40.617188 11.351562 39.902344 C 10.304688 39.195312 9.316406 38.382812 8.421875 37.488281 C 7.527344 36.589844 6.714844 35.609375 6.007812 34.558594 C 5.292969 33.503906 4.679688 32.371094 4.183594 31.203125 C 3.152344 28.765625 2.628906 26.175781 2.628906 23.507812 C 2.628906 21.304688 2.988281 19.144531 3.699219 17.082031 C 4.191406 15.644531 4.847656 14.269531 5.65625 12.988281 L 7.351562 14.273438 L 7.472656 8.417969 L 1.867188 10.105469 L 3.949219 11.6875 C 3.003906 13.15625 2.242188 14.730469 1.675781 16.386719 C 0.890625 18.671875 0.488281 21.066406 0.488281 23.507812 C 0.488281 24.992188 0.640625 26.476562 0.933594 27.921875 C 1.222656 29.328125 1.652344 30.714844 2.210938 32.039062 C 2.761719 33.335938 3.441406 34.589844 4.230469 35.761719 C 5.015625 36.921875 5.917969 38.011719 6.90625 39.003906 C 7.898438 39.996094 8.988281 40.894531 10.152344 41.679688 C 11.324219 42.472656 12.574219 43.152344 13.875 43.699219 C 15.195312 44.257812 16.582031 44.691406 17.988281 44.976562 C 19.433594 45.273438 20.917969 45.421875 22.40625 45.421875 C 23.894531 45.421875 25.378906 45.273438 26.820312 44.976562 C 28.230469 44.691406 29.613281 44.257812 30.9375 43.699219 C 32.234375 43.152344 33.488281 42.46875 34.660156 41.679688 C 35.820312 40.894531 36.910156 39.996094 37.902344 39.003906 C 38.894531 38.011719 39.796875 36.921875 40.578125 35.761719 C 41.371094 34.589844 42.050781 33.335938 42.597656 32.039062 C 43.160156 30.714844 43.589844 29.332031 43.875 27.921875 C 44.171875 26.476562 44.320312 24.992188 44.320312 23.507812 C 44.320312 22.019531 44.171875 20.535156 43.875 19.089844 C 43.585938 17.683594 43.160156 16.300781 42.597656 14.976562 Z M 42.597656 14.976562 "/></g></g></svg>