<svg xmlns="http://www.w3.org/2000/svg" xmlns:xlink="http://www.w3.org/1999/xlink" width="80" zoomAndPan="magnify" viewBox="0 0 60 60" height="80" preserveAspectRatio="xMidYMid meet" version="1.2"><defs><clipPath id="615c5ca960"><path d="M 0 2.773438 L 60 2.773438 L 60 57.523438 L 0 57.523438 Z M 0 2.773438 "/></clipPath></defs><g id="82260ea012"><rect x="0" width="60" y="0" height="60" style="fill:#ffffff;fill-opacity:1;stroke:none;"/><rect x="0" width="60" y="0" height="60" style="fill:#ffffff;fill-opacity:1;stroke:none;"/><g clip-rule="nonzero" clip-path="url(#615c5ca960)"><path style=" stroke:none;fill-rule:nonzero;fill:#5170ff;fill-opacity:1;" d="M 58.546875 33.378906 C 57.863281 32.289062 56.792969 31.53125 55.53125 31.246094 C 54.910156 31.105469 54.28125 31.085938 53.671875 31.1875 L 53.671875 19.628906 C 55.757812 18.796875 57.234375 16.761719 57.234375 14.382812 L 57.234375 13.910156 C 57.234375 13.78125 57.203125 13.652344 57.136719 13.539062 L 51.050781 3.136719 C 50.917969 2.910156 50.675781 2.773438 50.414062 2.773438 L 23.328125 2.773438 C 23.066406 2.773438 22.824219 2.910156 22.691406 3.136719 L 16.609375 13.539062 C 16.539062 13.652344 16.507812 13.78125 16.507812 13.910156 L 16.507812 14.382812 C 16.507812 16.761719 17.988281 18.796875 20.070312 19.628906 L 20.070312 32.671875 C 18.984375 32.859375 17.925781 33.253906 16.910156 33.859375 L 8.742188 38.714844 L 7.519531 36.660156 C 7.3125 36.3125 6.859375 36.195312 6.511719 36.40625 L 0.410156 40.035156 C 0.226562 40.144531 0.101562 40.324219 0.0625 40.527344 C 0.0234375 40.734375 0.0703125 40.945312 0.199219 41.113281 L 12.140625 56.929688 C 12.285156 57.117188 12.507812 57.21875 12.730469 57.21875 C 12.859375 57.21875 12.992188 57.1875 13.109375 57.117188 L 17.339844 54.597656 C 17.507812 54.5 17.628906 54.335938 17.679688 54.144531 C 17.726562 53.957031 17.699219 53.753906 17.597656 53.585938 L 16.101562 51.070312 L 19.074219 49.351562 L 32.828125 52.8125 C 33.40625 52.960938 33.976562 53.03125 34.539062 53.03125 C 35.765625 53.03125 36.945312 52.679688 38.050781 51.984375 L 57.035156 40.039062 C 59.289062 38.621094 59.96875 35.632812 58.546875 33.378906 Z M 51.59375 18.550781 C 49.382812 18.550781 47.570312 16.824219 47.433594 14.648438 L 55.753906 14.648438 C 55.613281 16.824219 53.800781 18.550781 51.59375 18.550781 Z M 23.75 4.246094 L 49.992188 4.246094 L 55.214844 13.171875 L 18.53125 13.171875 Z M 45.9375 14.648438 C 45.800781 16.824219 43.988281 18.550781 41.777344 18.550781 C 39.570312 18.550781 37.757812 16.824219 37.617188 14.648438 Z M 36.125 14.648438 C 35.988281 16.824219 34.175781 18.550781 31.964844 18.550781 C 29.753906 18.550781 27.945312 16.824219 27.804688 14.648438 Z M 17.992188 14.648438 L 26.3125 14.648438 C 26.175781 16.824219 24.359375 18.550781 22.152344 18.550781 C 19.941406 18.550781 18.128906 16.824219 17.992188 14.648438 Z M 21.546875 19.992188 C 21.746094 20.011719 21.949219 20.027344 22.152344 20.027344 C 24.25 20.027344 26.085938 18.871094 27.058594 17.164062 C 28.03125 18.871094 29.867188 20.027344 31.964844 20.027344 C 34.066406 20.027344 35.902344 18.871094 36.875 17.164062 C 37.847656 18.871094 39.679688 20.027344 41.78125 20.027344 C 43.882812 20.027344 45.714844 18.871094 46.6875 17.164062 C 47.660156 18.871094 49.496094 20.027344 51.597656 20.027344 C 51.800781 20.027344 52 20.015625 52.199219 19.992188 L 52.199219 31.683594 C 52.097656 31.742188 51.992188 31.800781 51.890625 31.863281 L 38.503906 40.289062 C 38.808594 38.117188 37.402344 36.066406 35.191406 35.535156 L 35.183594 35.535156 L 35.183594 23.085938 C 35.183594 22.675781 34.855469 22.347656 34.449219 22.347656 L 26.433594 22.347656 C 26.027344 22.347656 25.695312 22.675781 25.695312 23.085938 L 25.695312 33.261719 L 23.824219 32.8125 C 23.054688 32.628906 22.296875 32.539062 21.550781 32.539062 L 21.550781 19.992188 Z M 33.707031 35.183594 L 27.167969 33.617188 L 27.167969 23.820312 L 33.707031 23.820312 Z M 12.921875 55.515625 L 1.871094 40.882812 L 6.632812 38.050781 L 15.953125 53.710938 Z M 56.246094 38.792969 L 37.265625 50.734375 C 36.003906 51.53125 34.632812 51.746094 33.1875 51.382812 L 19.144531 47.851562 C 18.957031 47.804688 18.761719 47.832031 18.597656 47.929688 L 15.34375 49.804688 L 9.496094 39.980469 L 17.660156 35.128906 C 19.496094 34.035156 21.398438 33.75 23.476562 34.246094 L 34.839844 36.972656 C 36.371094 37.335938 37.320312 38.792969 37 40.28125 C 36.691406 41.734375 35.222656 42.675781 33.660156 42.417969 L 24.878906 40.976562 C 24.476562 40.910156 24.097656 41.183594 24.03125 41.585938 C 23.964844 41.988281 24.238281 42.367188 24.640625 42.429688 L 33.421875 43.875 C 33.675781 43.914062 33.929688 43.933594 34.175781 43.933594 C 35.15625 43.933594 36.074219 43.621094 36.816406 43.082031 L 36.820312 43.085938 L 52.671875 33.109375 C 53.425781 32.636719 54.324219 32.484375 55.203125 32.683594 C 56.078125 32.882812 56.824219 33.40625 57.300781 34.164062 C 58.285156 35.730469 57.8125 37.808594 56.246094 38.792969 Z M 38.996094 30.695312 L 47.3125 30.695312 C 47.71875 30.695312 48.050781 30.363281 48.050781 29.957031 L 48.050781 23.085938 C 48.050781 22.675781 47.71875 22.347656 47.3125 22.347656 L 38.996094 22.347656 C 38.589844 22.347656 38.261719 22.675781 38.261719 23.085938 L 38.261719 29.957031 C 38.261719 30.363281 38.589844 30.695312 38.996094 30.695312 Z M 39.734375 23.820312 L 46.574219 23.820312 L 46.574219 29.21875 L 39.734375 29.21875 Z M 39.734375 23.820312 "/></g></g></svg>