<svg xmlns="http://www.w3.org/2000/svg" xmlns:xlink="http://www.w3.org/1999/xlink" width="80" zoomAndPan="magnify" viewBox="0 0 60 60" height="80" preserveAspectRatio="xMidYMid meet" version="1.2"><defs><clipPath id="c8c8179431"><path d="M 0 8.136719 L 50 8.136719 L 50 49 L 0 49 Z M 0 8.136719 "/></clipPath><clipPath id="c9d642df60"><path d="M 34 25 L 60 25 L 60 51.636719 L 34 51.636719 Z M 34 25 "/></clipPath></defs><g id="1c240dd81a"><rect x="0" width="60" y="0" height="60" style="fill:#ffffff;fill-opacity:1;stroke:none;"/><rect x="0" width="60" y="0" height="60" style="fill:#ffffff;fill-opacity:1;stroke:none;"/><g clip-rule="nonzero" clip-path="url(#c8c8179431)"><path style=" stroke:none;fill-rule:nonzero;fill:#5170ff;fill-opacity:1;" d="M 43.019531 41.3125 L 40.382812 38.675781 L 3.441406 38.675781 C 2.996094 38.675781 2.640625 38.3125 2.640625 37.871094 L 2.640625 11.707031 C 2.640625 11.265625 2.996094 10.90625 3.441406 10.90625 L 46.277344 10.90625 C 46.714844 10.90625 47.078125 11.265625 47.078125 11.707031 L 47.078125 32.40625 L 49.714844 35.046875 L 49.714844 11.707031 C 49.714844 9.8125 48.171875 8.269531 46.277344 8.269531 L 3.441406 8.269531 C 1.542969 8.269531 0 9.8125 0 11.707031 L 0 37.871094 C 0 39.769531 1.542969 41.3125 3.441406 41.3125 L 19.21875 41.3125 L 19.21875 43.832031 L 17.839844 43.832031 C 15.355469 43.832031 13.34375 45.84375 13.34375 48.328125 L 36.371094 48.328125 C 36.371094 45.84375 34.359375 43.832031 31.875 43.832031 L 30.496094 43.832031 L 30.496094 41.3125 L 43.019531 41.3125 "/></g><path style=" stroke:none;fill-rule:nonzero;fill:#5170ff;fill-opacity:1;" d="M 7.757812 14.550781 C 7.757812 13.824219 7.167969 13.234375 6.441406 13.234375 C 5.714844 13.234375 5.125 13.824219 5.125 14.550781 C 5.125 15.277344 5.714844 15.867188 6.441406 15.867188 C 7.167969 15.867188 7.757812 15.277344 7.757812 14.550781 "/><path style=" stroke:none;fill-rule:nonzero;fill:#5170ff;fill-opacity:1;" d="M 12.535156 14.550781 C 12.535156 13.824219 11.945312 13.234375 11.21875 13.234375 C 10.492188 13.234375 9.902344 13.824219 9.902344 14.550781 C 9.902344 15.277344 10.492188 15.867188 11.21875 15.867188 C 11.945312 15.867188 12.535156 15.277344 12.535156 14.550781 "/><path style=" stroke:none;fill-rule:nonzero;fill:#5170ff;fill-opacity:1;" d="M 15.996094 15.867188 C 16.722656 15.867188 17.3125 15.277344 17.3125 14.550781 C 17.3125 13.824219 16.722656 13.234375 15.996094 13.234375 C 15.269531 13.234375 14.683594 13.824219 14.683594 14.550781 C 14.683594 15.277344 15.269531 15.867188 15.996094 15.867188 "/><path style=" stroke:none;fill-rule:nonzero;fill:#5170ff;fill-opacity:1;" d="M 40.621094 15.59375 L 42.070312 13.871094 C 41.347656 13.464844 40.519531 13.234375 39.632812 13.234375 C 37.691406 13.234375 36.003906 14.347656 35.171875 15.96875 L 37.363281 16.554688 C 37.878906 15.863281 38.703125 15.414062 39.632812 15.414062 C 39.980469 15.414062 40.3125 15.480469 40.621094 15.59375 "/><path style=" stroke:none;fill-rule:nonzero;fill:#5170ff;fill-opacity:1;" d="M 44.636719 18.242188 C 44.636719 17.050781 44.21875 15.953125 43.519531 15.09375 L 42.074219 16.816406 C 42.316406 17.234375 42.457031 17.722656 42.457031 18.242188 C 42.457031 18.355469 42.453125 18.472656 42.4375 18.582031 L 44.398438 19.777344 C 44.554688 19.292969 44.636719 18.777344 44.636719 18.242188 "/><path style=" stroke:none;fill-rule:nonzero;fill:#5170ff;fill-opacity:1;" d="M 38.167969 23.027344 L 38.519531 20.839844 C 37.550781 20.421875 36.855469 19.480469 36.808594 18.371094 L 34.644531 17.792969 C 34.632812 17.941406 34.625 18.089844 34.625 18.242188 C 34.625 20.492188 36.121094 22.402344 38.167969 23.027344 "/><path style=" stroke:none;fill-rule:nonzero;fill:#5170ff;fill-opacity:1;" d="M 43.480469 21.441406 L 41.582031 20.285156 C 41.09375 20.753906 40.4375 21.046875 39.714844 21.066406 L 39.367188 23.242188 C 39.453125 23.246094 39.542969 23.246094 39.632812 23.246094 C 41.175781 23.246094 42.558594 22.542969 43.480469 21.441406 "/><path style=" stroke:none;fill-rule:nonzero;fill:#5170ff;fill-opacity:1;" d="M 9.089844 36.328125 L 11.078125 36.328125 L 11.078125 23.480469 L 9.089844 23.480469 L 9.089844 36.328125 "/><path style=" stroke:none;fill-rule:nonzero;fill:#5170ff;fill-opacity:1;" d="M 13.054688 36.328125 L 15.042969 36.328125 L 15.042969 20.269531 L 13.054688 20.269531 L 13.054688 36.328125 "/><path style=" stroke:none;fill-rule:nonzero;fill:#5170ff;fill-opacity:1;" d="M 19.007812 28.277344 L 17.019531 28.277344 L 17.019531 36.328125 L 19.007812 36.328125 L 19.007812 28.277344 "/><path style=" stroke:none;fill-rule:nonzero;fill:#5170ff;fill-opacity:1;" d="M 5.125 36.328125 L 7.117188 36.328125 L 7.117188 27.691406 L 5.125 27.691406 L 5.125 36.328125 "/><path style=" stroke:none;fill-rule:nonzero;fill:#5170ff;fill-opacity:1;" d="M 35.367188 25.871094 L 22.757812 25.871094 L 22.757812 28.296875 L 32.253906 28.296875 C 32.695312 27.609375 33.46875 27.164062 34.320312 27.164062 C 34.976562 27.164062 35.289062 26.601562 35.367188 25.871094 "/><path style=" stroke:none;fill-rule:nonzero;fill:#5170ff;fill-opacity:1;" d="M 22.757812 30.304688 L 22.757812 31.203125 L 31.785156 31.203125 C 31.757812 30.90625 31.75 30.605469 31.761719 30.304688 L 22.757812 30.304688 "/><path style=" stroke:none;fill-rule:nonzero;fill:#5170ff;fill-opacity:1;" d="M 22.757812 33.765625 L 32.523438 33.765625 C 32.375 33.472656 32.246094 33.171875 32.140625 32.863281 L 22.757812 32.863281 L 22.757812 33.765625 "/><path style=" stroke:none;fill-rule:nonzero;fill:#5170ff;fill-opacity:1;" d="M 22.757812 36.328125 L 34.757812 36.328125 C 34.421875 36.09375 34.105469 35.828125 33.808594 35.53125 C 33.777344 35.496094 33.742188 35.460938 33.707031 35.425781 L 22.757812 35.425781 L 22.757812 36.328125 "/><g clip-rule="nonzero" clip-path="url(#c9d642df60)"><path style=" stroke:none;fill-rule:nonzero;fill:#5170ff;fill-opacity:1;" d="M 56.34375 48.15625 C 55.695312 48.800781 54.832031 49.097656 53.984375 49.046875 C 53.265625 49 52.558594 48.703125 52.011719 48.15625 C 50.816406 46.960938 50.816406 45.015625 52.011719 43.824219 C 53.203125 42.628906 55.148438 42.628906 56.34375 43.824219 C 56.890625 44.371094 57.1875 45.074219 57.234375 45.792969 C 57.285156 46.644531 56.992188 47.507812 56.34375 48.15625 Z M 57.746094 42.421875 C 56.363281 41.039062 54.371094 40.628906 52.625 41.1875 L 43.308594 31.867188 C 43.757812 30.273438 43.359375 28.492188 42.105469 27.238281 C 40.929688 26.0625 39.289062 25.636719 37.777344 25.957031 C 37.640625 25.988281 37.589844 26.15625 37.691406 26.25 L 40.851562 29.414062 C 41.039062 29.601562 41.039062 29.902344 40.851562 30.089844 L 38.277344 32.664062 C 38.09375 32.851562 37.789062 32.851562 37.605469 32.664062 L 34.441406 29.5 C 34.34375 29.402344 34.175781 29.453125 34.148438 29.589844 C 33.824219 31.101562 34.25 32.742188 35.425781 33.914062 C 36.679688 35.167969 38.460938 35.570312 40.054688 35.117188 L 49.375 44.4375 C 48.816406 46.179688 49.226562 48.175781 50.609375 49.558594 C 52.578125 51.523438 55.777344 51.523438 57.746094 49.558594 C 59.710938 47.589844 59.710938 44.390625 57.746094 42.421875 "/></g></g></svg>